<svg id="Layer_1" data-name="Layer 1" xmlns="http://www.w3.org/2000/svg" xmlns:xlink="http://www.w3.org/1999/xlink"
    viewBox="0 0 77.85 86.21">
    <defs>
        <style>
            .cls-1 {
                fill: none;
            }

            .cls-2 {
                fill: #5188c7;
            }

            .cls-3 {
                clip-path: url(#clip-path);
            }
        </style>
        <clipPath id="clip-path" transform="translate(-10.49 -6.21)">
            <path class="cls-1" d="M55.65,38.76V82.23h0c0,2.23,7,4,15.72,4s15.72-1.81,15.72-4h0V38.76Z" />
        </clipPath>
    </defs>
    <title>Alexa Skill Development</title>
    <path class="cls-2"
        d="M37.18,39.87a25,25,0,0,1,17.76,7.36c.3.3.59.6.87.91l0-2.31A26.62,26.62,0,0,0,37.18,38.3h0A26.69,26.69,0,1,0,56,84l0-2.26c-.31.35-.64.7-1,1A25.11,25.11,0,1,1,37.18,39.87"
        transform="translate(-10.49 -6.21)" />
    <path class="cls-2"
        d="M37.18,64.36a.63.63,0,1,1-.62.63.63.63,0,0,1,.62-.63m0,0a.67.67,0,1,0,.67.67.67.67,0,0,0-.67-.67Z"
        transform="translate(-10.49 -6.21)" />
    <circle class="cls-2" cx="26.69" cy="58.78" r="0.67" />
    <circle class="cls-2" cx="40.9" cy="58.79" r="0.89" />
    <path class="cls-2"
        d="M23.43,60.71A4.29,4.29,0,1,1,19.14,65a4.29,4.29,0,0,1,4.29-4.29m0-.27A4.56,4.56,0,1,0,28,65a4.56,4.56,0,0,0-4.55-4.56Z"
        transform="translate(-10.49 -6.21)" />
    <path class="cls-2"
        d="M51.39,60.71A4.29,4.29,0,1,1,47.11,65a4.3,4.3,0,0,1,4.28-4.29m0-.27A4.56,4.56,0,1,0,56,65a4.56,4.56,0,0,0-4.56-4.56Z"
        transform="translate(-10.49 -6.21)" />
    <path class="cls-2"
        d="M37.18,40.55h0a.36.36,0,0,0-.36.36.36.36,0,0,0,.36.36h0a.37.37,0,0,0,.36-.36.36.36,0,0,0-.36-.36Zm-1.73.06h0a.37.37,0,0,0-.33.38.36.36,0,0,0,.36.34h0a.36.36,0,0,0,.33-.39.35.35,0,0,0-.35-.33Zm-1.73.19h-.06a.37.37,0,0,0-.31.41.36.36,0,0,0,.36.3h.06a.36.36,0,0,0,.3-.41.35.35,0,0,0-.35-.3ZM32,41.11h-.09a.36.36,0,0,0,.08.71h.08a.37.37,0,0,0,.28-.43.36.36,0,0,0-.35-.28Zm-1.69.43-.1,0h0A.35.35,0,0,0,30,42a.36.36,0,0,0,.34.26l.11,0h0a.36.36,0,0,0-.1-.7Zm-1.65.56a.25.25,0,0,0-.12,0h0a.35.35,0,0,0-.21.46.36.36,0,0,0,.34.24.27.27,0,0,0,.12,0h0a.36.36,0,0,0,.21-.46.35.35,0,0,0-.34-.23Zm-1.6.67-.15,0h0a.34.34,0,0,0-.17.47.36.36,0,0,0,.32.21l.15,0h0a.34.34,0,0,0,.17-.47.36.36,0,0,0-.32-.21Zm-1.55.79a.33.33,0,0,0-.17,0h0a.35.35,0,0,0-.14.48.37.37,0,0,0,.31.19.41.41,0,0,0,.18-.05h0a.35.35,0,0,0,.14-.49.33.33,0,0,0-.31-.18Zm-1.49.9a.35.35,0,0,0-.2,0h0a.36.36,0,0,0-.11.49.36.36,0,0,0,.3.17.36.36,0,0,0,.2-.06h0a.35.35,0,0,0,.1-.49.34.34,0,0,0-.3-.16Zm-1.42,1a.36.36,0,0,0-.22.07h0a.35.35,0,0,0-.07.5.37.37,0,0,0,.28.14.34.34,0,0,0,.22-.07h0a.36.36,0,0,0,.06-.5.35.35,0,0,0-.28-.14Zm-1.35,1.1a.35.35,0,0,0-.23.09h0a.35.35,0,0,0,0,.5.36.36,0,0,0,.27.12.38.38,0,0,0,.24-.09h0a.36.36,0,0,0,0-.51.36.36,0,0,0-.27-.12ZM20,47.76a.32.32,0,0,0-.25.11h0a.35.35,0,0,0,0,.51.35.35,0,0,0,.25.1.36.36,0,0,0,.25-.11h0a.36.36,0,0,0,0-.51.35.35,0,0,0-.25-.1ZM18.83,49a.37.37,0,0,0-.27.13h0a.36.36,0,0,0,0,.51.34.34,0,0,0,.23.08.38.38,0,0,0,.28-.12h0a.36.36,0,0,0-.27-.59Zm-1.08,1.37a.37.37,0,0,0-.29.14h0a.35.35,0,0,0,.07.5.36.36,0,0,0,.22.07A.33.33,0,0,0,18,51h0a.35.35,0,0,0-.08-.5.33.33,0,0,0-.21-.07Zm-1,1.44a.37.37,0,0,0-.3.16h0a.35.35,0,0,0,.11.49.33.33,0,0,0,.19.06.35.35,0,0,0,.3-.17h0A.36.36,0,0,0,17,51.9a.32.32,0,0,0-.19,0Zm-.87,1.5a.34.34,0,0,0-.31.19h0a.36.36,0,0,0,.15.48.34.34,0,0,0,.17,0,.36.36,0,0,0,.32-.2h0a.36.36,0,0,0-.15-.49.47.47,0,0,0-.17,0Zm-.76,1.57a.36.36,0,0,0-.32.21h0a.35.35,0,0,0,.19.47.32.32,0,0,0,.14,0,.36.36,0,0,0,.33-.21h0a.36.36,0,0,0-.18-.47.4.4,0,0,0-.15,0Zm-.64,1.61a.35.35,0,0,0-.34.24h0a.35.35,0,0,0,.22.45.27.27,0,0,0,.12,0,.37.37,0,0,0,.33-.24h0a.36.36,0,0,0-.22-.46l-.12,0ZM14,58.19a.35.35,0,0,0-.34.26h0a.35.35,0,0,0,.25.44H14a.36.36,0,0,0,.35-.26h0a.36.36,0,0,0-.25-.44Zm-.4,1.69a.35.35,0,0,0-.35.29h0a.36.36,0,0,0,.28.42h.07a.35.35,0,0,0,.35-.29h0a.35.35,0,0,0-.28-.42Zm-.28,1.72a.35.35,0,0,0-.35.31h0a.35.35,0,0,0,.31.4h0a.37.37,0,0,0,.36-.31h0a.37.37,0,0,0-.31-.4Zm-.15,1.73a.36.36,0,0,0-.36.34h0a.35.35,0,0,0,.34.37h0a.35.35,0,0,0,.36-.33h0a.37.37,0,0,0-.34-.38Zm0,1.74h0a.36.36,0,0,0-.35.37h0a.35.35,0,0,0,.36.35h0a.36.36,0,0,0,.36-.36h0a.37.37,0,0,0-.36-.35Zm.09,1.74h0a.37.37,0,0,0-.33.39h0a.35.35,0,0,0,.35.32h0a.36.36,0,0,0,.33-.39h0a.37.37,0,0,0-.36-.32Zm.22,1.72h-.06a.36.36,0,0,0-.3.41h0a.36.36,0,0,0,.35.3h.06a.35.35,0,0,0,.29-.41h0a.36.36,0,0,0-.35-.3Zm.34,1.71h-.08a.36.36,0,0,0-.27.43h0a.36.36,0,0,0,.35.27h.09a.35.35,0,0,0,.26-.43h0a.36.36,0,0,0-.35-.27Zm.47,1.67-.11,0a.36.36,0,0,0-.24.45h0a.36.36,0,0,0,.34.25l.11,0a.36.36,0,0,0,.23-.45h0a.36.36,0,0,0-.34-.25Zm.58,1.64a.31.31,0,0,0-.13,0,.35.35,0,0,0-.2.46h0a.37.37,0,0,0,.33.23.35.35,0,0,0,.14,0,.37.37,0,0,0,.2-.47h0a.36.36,0,0,0-.33-.23Zm.7,1.59a.28.28,0,0,0-.15,0,.36.36,0,0,0-.17.48h0a.35.35,0,0,0,.32.21.42.42,0,0,0,.15,0,.36.36,0,0,0,.17-.48h0a.38.38,0,0,0-.33-.2Zm.82,1.54a.31.31,0,0,0-.18,0,.36.36,0,0,0-.13.49h0a.36.36,0,0,0,.31.18.27.27,0,0,0,.18-.05.36.36,0,0,0,.13-.49h0a.36.36,0,0,0-.31-.18Zm.93,1.47a.42.42,0,0,0-.21.06.36.36,0,0,0-.09.5h0a.37.37,0,0,0,.3.15.36.36,0,0,0,.2-.06.37.37,0,0,0,.1-.5h0a.36.36,0,0,0-.29-.16Zm1,1.4a.4.4,0,0,0-.22.08.36.36,0,0,0-.06.5h0a.36.36,0,0,0,.56-.44h0a.38.38,0,0,0-.29-.14Zm1.13,1.33a.38.38,0,0,0-.24.09.35.35,0,0,0,0,.51h0a.36.36,0,0,0,.27.12.38.38,0,0,0,.24-.09.37.37,0,0,0,0-.51h0a.39.39,0,0,0-.27-.11Zm1.22,1.24a.38.38,0,0,0-.26.11.36.36,0,0,0,0,.51h0a.35.35,0,0,0,.25.1.38.38,0,0,0,.26-.11.36.36,0,0,0,0-.51h0a.35.35,0,0,0-.25-.1Zm1.31,1.15a.34.34,0,0,0-.28.13.35.35,0,0,0,.05.5h0a.35.35,0,0,0,.22.08.36.36,0,0,0,.23-.64h0a.3.3,0,0,0-.22-.08Zm1.38,1a.36.36,0,0,0-.21.65h0a.39.39,0,0,0,.21.06.35.35,0,0,0,.29-.15.37.37,0,0,0-.09-.5h0a.35.35,0,0,0-.21-.07Zm1.46,1a.36.36,0,0,0-.31.18.36.36,0,0,0,.12.49h0a.31.31,0,0,0,.18,0,.37.37,0,0,0,.31-.17.36.36,0,0,0-.12-.49h0a.41.41,0,0,0-.18,0Zm1.52.84a.37.37,0,0,0-.32.2.36.36,0,0,0,.15.48h0l.16,0a.35.35,0,0,0,.32-.19.36.36,0,0,0-.15-.48h0a.47.47,0,0,0-.16,0Zm1.58.74a.35.35,0,0,0-.14.68h0a.3.3,0,0,0,.13,0,.35.35,0,0,0,.14-.68h0a.3.3,0,0,0-.13,0Zm1.62.61a.35.35,0,0,0-.34.24.37.37,0,0,0,.23.46h0l.11,0a.36.36,0,0,0,.34-.25.36.36,0,0,0-.23-.45h0l-.12,0Zm1.67.49a.37.37,0,0,0-.35.27.37.37,0,0,0,.26.44h.1a.37.37,0,0,0,.35-.27.36.36,0,0,0-.26-.43h-.1Zm1.7.37a.36.36,0,0,0-.06.72h.07a.35.35,0,0,0,.35-.29.36.36,0,0,0-.29-.42h-.07Zm1.72.25a.35.35,0,0,0-.35.32.35.35,0,0,0,.31.4h.05A.37.37,0,0,0,35,89a.36.36,0,0,0-.32-.39h0Zm1.74.13a.36.36,0,0,0,0,.71h0a.36.36,0,0,0,0-.71h0Zm1.74,0h0a.37.37,0,0,0-.34.38.35.35,0,0,0,.36.34h0a.35.35,0,0,0,.34-.37.36.36,0,0,0-.36-.35Zm1.74-.12h-.05a.36.36,0,0,0,0,.72h.05a.36.36,0,0,0,0-.71Zm1.72-.25h-.07a.36.36,0,0,0,.06.71h.07a.36.36,0,0,0-.06-.71Zm1.7-.37h-.1a.37.37,0,0,0-.26.44.36.36,0,0,0,.35.26h.1a.35.35,0,0,0-.09-.7Zm1.67-.5-.12,0h0a.36.36,0,0,0,.12.7l.11,0h0a.37.37,0,0,0,.23-.46.36.36,0,0,0-.34-.24Zm1.62-.62-.14,0h0a.36.36,0,0,0,.13.69l.14,0h0a.36.36,0,0,0,.19-.47.37.37,0,0,0-.33-.22Zm1.58-.73a.29.29,0,0,0-.16,0h0a.36.36,0,0,0-.16.48.36.36,0,0,0,.32.2.29.29,0,0,0,.16,0h0a.36.36,0,0,0,.16-.48.35.35,0,0,0-.32-.2Zm1.52-.84a.34.34,0,0,0-.19,0h0a.36.36,0,0,0,.18.67.33.33,0,0,0,.19-.06h0a.36.36,0,0,0-.19-.66Zm1.45-1a.31.31,0,0,0-.2.07h0a.36.36,0,0,0-.08.5.35.35,0,0,0,.29.15.36.36,0,0,0,.2-.06h0a.36.36,0,0,0,.09-.5.38.38,0,0,0-.3-.15Zm1.39-1a.34.34,0,0,0-.23.08h0a.37.37,0,0,0,0,.51.41.41,0,0,0,.28.13.4.4,0,0,0,.23-.08h0a.35.35,0,0,0,0-.5.34.34,0,0,0-.27-.13Zm1.3-1.15a.35.35,0,0,0-.25.1h0a.36.36,0,0,0,.25.62.34.34,0,0,0,.24-.1h0a.35.35,0,0,0,0-.5.33.33,0,0,0-.26-.11ZM55,80.85a.36.36,0,0,0-.27.12h0a.36.36,0,0,0,0,.5.34.34,0,0,0,.24.1.36.36,0,0,0,.27-.12h0a.34.34,0,0,0,0-.5.37.37,0,0,0-.24-.1ZM55.52,49a.4.4,0,0,0-.23.08.36.36,0,0,0,0,.51h0a.34.34,0,0,0,.28.13.4.4,0,0,0,.23-.08.36.36,0,0,0,0-.51h0a.36.36,0,0,0-.27-.12Zm-1.17-1.28a.35.35,0,0,0-.26.1.36.36,0,0,0,0,.51h0a.36.36,0,0,0,.51-.5h0a.35.35,0,0,0-.25-.1Zm-1.27-1.2a.36.36,0,0,0-.27.12.37.37,0,0,0,0,.51h0a.36.36,0,1,0,.48-.53h0a.36.36,0,0,0-.24-.09Zm-1.34-1.1a.37.37,0,0,0-.29.14.35.35,0,0,0,.07.5h0a.38.38,0,0,0,.22.07A.37.37,0,0,0,52,46a.35.35,0,0,0-.07-.5h0a.33.33,0,0,0-.21-.07Zm-1.43-1a.38.38,0,0,0-.3.16.36.36,0,0,0,.11.5h0a.36.36,0,0,0,.2.06.36.36,0,0,0,.2-.66h0a.36.36,0,0,0-.2-.06Zm-1.49-.9a.35.35,0,0,0-.31.19.35.35,0,0,0,.14.48h0a.33.33,0,0,0,.17,0,.34.34,0,0,0,.31-.18.35.35,0,0,0-.14-.49h0a.41.41,0,0,0-.18-.05Zm-1.55-.78A.35.35,0,0,0,47,43a.35.35,0,0,0,.17.48h0a.28.28,0,0,0,.15,0,.36.36,0,0,0,.15-.69h0l-.15,0Zm-1.6-.68a.36.36,0,0,0-.13.7h0a.25.25,0,0,0,.12,0,.36.36,0,0,0,.13-.69h0l-.12,0ZM44,41.53a.36.36,0,0,0-.1.7H44a.36.36,0,0,0,.34-.26.35.35,0,0,0-.24-.44h0l-.1,0Zm-1.69-.43a.36.36,0,0,0-.07.71h.08a.36.36,0,0,0,.35-.28.36.36,0,0,0-.27-.43h-.09Zm-1.71-.31a.36.36,0,0,0-.35.31.35.35,0,0,0,.3.4h.06a.36.36,0,0,0,0-.71h-.06Zm-1.73-.18a.37.37,0,0,0-.36.33.36.36,0,0,0,.34.38h0a.37.37,0,0,0,.36-.34.36.36,0,0,0-.34-.38h0Z"
        transform="translate(-10.49 -6.21)" />
    <path class="cls-2"
        d="M37.21,41.65h0a.29.29,0,1,0,0,.58h0a.29.29,0,1,0,0-.58Zm-1.66.06h0a.29.29,0,0,0,0,.58h0a.28.28,0,0,0,.26-.3.29.29,0,0,0-.28-.27Zm-1.66.18h0a.29.29,0,0,0-.24.33.28.28,0,0,0,.28.24h0a.29.29,0,0,0,0-.57Zm-1.64.3h-.07a.3.3,0,0,0-.22.34.29.29,0,0,0,.28.23h.07a.28.28,0,0,0,.22-.34.29.29,0,0,0-.28-.22Zm-1.61.41h-.09a.29.29,0,0,0-.19.36.28.28,0,0,0,.27.2h.09a.28.28,0,0,0,.19-.36.28.28,0,0,0-.27-.2Zm-1.58.53a.18.18,0,0,0-.1,0h0a.29.29,0,0,0-.17.37.3.3,0,0,0,.27.18.16.16,0,0,0,.1,0h0a.29.29,0,0,0,.17-.37.3.3,0,0,0-.27-.18Zm-1.54.64-.12,0h0a.28.28,0,0,0-.14.38.29.29,0,0,0,.26.17.27.27,0,0,0,.12,0h0a.29.29,0,0,0-.12-.55ZM26,44.52a.23.23,0,0,0-.14,0h0a.28.28,0,0,0-.11.39.27.27,0,0,0,.25.15.23.23,0,0,0,.14,0h0a.28.28,0,0,0,.11-.39.29.29,0,0,0-.25-.15Zm-1.43.86a.27.27,0,0,0-.15,0h0a.29.29,0,0,0-.08.4.28.28,0,0,0,.24.13.3.3,0,0,0,.15-.05h0a.29.29,0,0,0,.08-.4.29.29,0,0,0-.24-.13Zm-1.36,1a.27.27,0,0,0-.17.06h0a.29.29,0,0,0-.05.4.26.26,0,0,0,.22.12.28.28,0,0,0,.18-.06h0a.29.29,0,0,0,.06-.4.3.3,0,0,0-.23-.11Zm-1.29,1a.31.31,0,0,0-.19.08h0a.3.3,0,0,0,0,.41A.31.31,0,0,0,22,48a.3.3,0,0,0,.19-.07h0a.3.3,0,0,0,0-.41.32.32,0,0,0-.22-.1Zm-1.21,1.15a.32.32,0,0,0-.2.08h0a.29.29,0,0,0,0,.41.3.3,0,0,0,.2.08A.27.27,0,0,0,21,49h0a.29.29,0,0,0,0-.41.28.28,0,0,0-.2-.08Zm-1.12,1.23a.28.28,0,0,0-.22.1h0a.29.29,0,0,0,0,.41.31.31,0,0,0,.18.07.29.29,0,0,0,.22-.1h0a.28.28,0,0,0,0-.4.28.28,0,0,0-.19-.07Zm-1,1.3a.27.27,0,0,0-.23.12h0a.3.3,0,0,0,.06.4.26.26,0,0,0,.17,0,.28.28,0,0,0,.23-.11h0a.3.3,0,0,0-.06-.4.27.27,0,0,0-.17-.06Zm-.94,1.38a.28.28,0,0,0-.24.14h0a.3.3,0,0,0,.09.4.29.29,0,0,0,.16,0,.31.31,0,0,0,.24-.13h0a.28.28,0,0,0-.09-.4.37.37,0,0,0-.15,0Zm-.83,1.44a.3.3,0,0,0-.26.15h0a.3.3,0,0,0,.12.39.31.31,0,0,0,.13,0,.3.3,0,0,0,.26-.15h0a.28.28,0,0,0-.12-.38.22.22,0,0,0-.13,0Zm-.73,1.5a.27.27,0,0,0-.26.17h0a.28.28,0,0,0,.15.37l.11,0a.29.29,0,0,0,.27-.17h0a.29.29,0,0,0-.15-.38l-.11,0Zm-.62,1.54a.29.29,0,0,0-.27.19h0a.28.28,0,0,0,.17.37l.1,0a.31.31,0,0,0,.27-.2h0a.3.3,0,0,0-.17-.37l-.1,0ZM15,58.52a.28.28,0,0,0-.27.21h0a.27.27,0,0,0,.2.35H15a.29.29,0,0,0,.28-.21h0a.29.29,0,0,0-.2-.35Zm-.38,1.62a.27.27,0,0,0-.28.23h0a.3.3,0,0,0,.23.34h.06a.29.29,0,0,0,.28-.23h0a.28.28,0,0,0-.23-.33Zm-.27,1.64A.3.3,0,0,0,14,62h0a.28.28,0,0,0,.25.32h0a.28.28,0,0,0,.28-.25h0a.28.28,0,0,0-.25-.32Zm-.15,1.66a.29.29,0,0,0-.29.27h0a.29.29,0,0,0,.27.3h0a.29.29,0,0,0,.29-.27h0a.3.3,0,0,0-.28-.3Zm0,1.67h0a.29.29,0,0,0-.29.29h0a.3.3,0,0,0,.29.28h0a.3.3,0,0,0,.28-.29h0a.29.29,0,0,0-.29-.28Zm.09,1.66h0a.28.28,0,0,0-.25.31h0a.28.28,0,0,0,.28.26h0a.3.3,0,0,0,.26-.31h0a.29.29,0,0,0-.29-.26Zm.21,1.65h0a.27.27,0,0,0-.23.32h0a.28.28,0,0,0,.28.24h.05a.28.28,0,0,0,.23-.33h0a.28.28,0,0,0-.28-.24Zm.32,1.63H14.7a.28.28,0,0,0-.21.35h0a.29.29,0,0,0,.28.23h.06a.28.28,0,0,0,.21-.35h0a.29.29,0,0,0-.28-.22Zm.45,1.61h-.09a.3.3,0,0,0-.19.36h0a.29.29,0,0,0,.27.2h.09a.28.28,0,0,0,.18-.36h0a.29.29,0,0,0-.27-.2Zm.56,1.57a.2.2,0,0,0-.11,0,.28.28,0,0,0-.16.37h0a.3.3,0,0,0,.27.18l.1,0a.3.3,0,0,0,.17-.37h0a.28.28,0,0,0-.26-.18Zm.67,1.52a.28.28,0,0,0-.13,0,.28.28,0,0,0-.13.38h0a.29.29,0,0,0,.26.16.31.31,0,0,0,.13,0,.28.28,0,0,0,.13-.38h0a.27.27,0,0,0-.25-.16Zm.78,1.47a.28.28,0,0,0-.15,0,.29.29,0,0,0-.1.39h0a.3.3,0,0,0,.25.14.23.23,0,0,0,.14,0,.28.28,0,0,0,.11-.39h0a.3.3,0,0,0-.25-.14Zm.88,1.41a.33.33,0,0,0-.16.05.3.3,0,0,0-.08.4h0a.27.27,0,0,0,.24.12.25.25,0,0,0,.16,0,.29.29,0,0,0,.07-.4h0a.31.31,0,0,0-.24-.13Zm1,1.34a.24.24,0,0,0-.18.07.28.28,0,0,0-.05.4h0a.27.27,0,0,0,.22.1.3.3,0,0,0,.18-.06.3.3,0,0,0,.05-.4h0a.29.29,0,0,0-.22-.11Zm1.08,1.27a.32.32,0,0,0-.2.08.29.29,0,0,0,0,.4h0a.29.29,0,0,0,.21.09.26.26,0,0,0,.19-.07.29.29,0,0,0,0-.41h0a.28.28,0,0,0-.21-.1Zm1.16,1.19a.3.3,0,0,0-.21.09.29.29,0,0,0,0,.4h0a.32.32,0,0,0,.2.08.3.3,0,0,0,.21-.09.3.3,0,0,0,0-.41h0a.32.32,0,0,0-.2-.08Zm1.25,1.1a.29.29,0,0,0-.22.11.29.29,0,0,0,0,.4h0a.28.28,0,0,0,.18.06.29.29,0,0,0,.22-.11.29.29,0,0,0,0-.4h0a.24.24,0,0,0-.18-.07Zm1.33,1a.3.3,0,0,0-.24.12.29.29,0,0,0,.07.4h0a.27.27,0,0,0,.16.06.33.33,0,0,0,.24-.12.29.29,0,0,0-.07-.4h0a.33.33,0,0,0-.16,0Zm1.39.91a.27.27,0,0,0-.24.14.28.28,0,0,0,.09.39h0a.42.42,0,0,0,.15,0,.28.28,0,0,0,.24-.14.29.29,0,0,0-.09-.39h0a.28.28,0,0,0-.15,0Zm1.46.81a.3.3,0,0,0-.26.15.29.29,0,0,0,.13.39h0l.13,0a.28.28,0,0,0,.26-.15.3.3,0,0,0-.13-.39h0l-.13,0Zm1.51.7a.29.29,0,0,0-.27.17.29.29,0,0,0,.16.38h0a.23.23,0,0,0,.11,0,.28.28,0,0,0,.27-.17.29.29,0,0,0-.16-.38h0l-.11,0Zm1.55.59a.28.28,0,0,0-.27.19.29.29,0,0,0,.18.37h.1a.28.28,0,0,0,.27-.19.28.28,0,0,0-.18-.36h-.1Zm1.6.47a.3.3,0,0,0-.28.22.29.29,0,0,0,.21.35h.08A.29.29,0,0,0,31.5,87h-.08Zm1.63.36A.29.29,0,0,0,33,88h.06a.29.29,0,0,0,.29-.23.29.29,0,0,0-.24-.33h-.05Zm1.64.24a.28.28,0,0,0-.28.25.29.29,0,0,0,.25.32h0a.29.29,0,0,0,.29-.25.3.3,0,0,0-.26-.32h0Zm1.66.12a.28.28,0,0,0-.28.27.29.29,0,0,0,.27.3h0a.29.29,0,0,0,.29-.28.28.28,0,0,0-.28-.29h0Zm1.68,0h0a.29.29,0,0,0,0,.58h0a.29.29,0,0,0,0-.58Zm1.66-.12h0a.29.29,0,0,0,0,.58h0a.27.27,0,0,0,.25-.31.28.28,0,0,0-.28-.26Zm1.65-.24h-.06a.29.29,0,0,0,0,.57h.06a.29.29,0,0,0,.23-.33.3.3,0,0,0-.28-.24ZM43,87h-.08a.28.28,0,0,0-.2.35.28.28,0,0,0,.27.21H43a.29.29,0,0,0,.21-.35A.28.28,0,0,0,43,87Zm1.6-.48-.09,0h0a.28.28,0,0,0-.18.36.29.29,0,0,0,.27.2l.09,0h0a.28.28,0,0,0,.18-.36.29.29,0,0,0-.27-.2ZM46.12,86A.27.27,0,0,0,46,86h0a.28.28,0,0,0-.16.37.3.3,0,0,0,.27.18l.11,0h0a.28.28,0,0,0,.15-.37.29.29,0,0,0-.26-.18Zm1.51-.7a.2.2,0,0,0-.13,0h0a.28.28,0,0,0-.13.38.29.29,0,0,0,.26.16.31.31,0,0,0,.13,0h0a.3.3,0,0,0,.12-.39.28.28,0,0,0-.25-.16Zm1.45-.8a.28.28,0,0,0-.15,0h0a.28.28,0,0,0-.1.39.29.29,0,0,0,.25.14.23.23,0,0,0,.14,0h0a.29.29,0,0,0,.1-.4.31.31,0,0,0-.25-.13Zm1.39-.92a.27.27,0,0,0-.16.06h0a.29.29,0,0,0-.07.4.3.3,0,0,0,.24.12.24.24,0,0,0,.16,0h0a.29.29,0,0,0,.07-.4.31.31,0,0,0-.24-.13Zm1.33-1a.29.29,0,0,0-.18.07h0a.3.3,0,0,0,0,.41.28.28,0,0,0,.22.1A.28.28,0,0,0,52,83h0a.29.29,0,0,0,0-.4.29.29,0,0,0-.22-.11Zm1.25-1.1a.3.3,0,0,0-.2.08h0a.28.28,0,0,0,0,.4A.3.3,0,0,0,53,82a.32.32,0,0,0,.2-.08h0a.29.29,0,0,0,0-.41.27.27,0,0,0-.2-.09Zm1.16-1.19a.26.26,0,0,0-.21.1h0a.29.29,0,0,0,.43.39h0a.28.28,0,0,0,0-.4.32.32,0,0,0-.2-.08ZM55.29,79a.3.3,0,0,0-.23.11h0a.28.28,0,0,0,0,.4.29.29,0,0,0,.4,0h0a.31.31,0,0,0-.05-.41.32.32,0,0,0-.18-.06Zm.48-27.9a.27.27,0,0,0-.17.06.28.28,0,0,0-.06.4h0a.28.28,0,0,0,.23.12.34.34,0,0,0,.17,0A.3.3,0,0,0,56,51.2l0,0a.29.29,0,0,0-.22-.11Zm-1-1.3a.26.26,0,0,0-.18.07.29.29,0,0,0,0,.4h0a.32.32,0,0,0,.22.1.31.31,0,0,0,.18-.07.28.28,0,0,0,0-.39l0,0a.29.29,0,0,0-.21-.09Zm-1.12-1.23a.28.28,0,0,0-.2.08.29.29,0,0,0,0,.41h0a.27.27,0,0,0,.2.09.28.28,0,0,0,.2-.08.29.29,0,0,0,0-.4l0,0a.32.32,0,0,0-.19-.07ZM52.4,47.39a.31.31,0,0,0-.22.09.3.3,0,0,0,0,.41h0a.31.31,0,0,0,.19.08.32.32,0,0,0,.22-.1.29.29,0,0,0,0-.4l0,0a.27.27,0,0,0-.17-.06Zm-1.29-1.06a.28.28,0,0,0-.23.12.29.29,0,0,0,0,.4h0a.27.27,0,0,0,.17.06.28.28,0,0,0,.23-.11.29.29,0,0,0,0-.39l0,0a.33.33,0,0,0-.16-.05Zm-1.36-.95a.28.28,0,0,0-.16.52h0a.29.29,0,0,0,.39-.09.27.27,0,0,0-.07-.38l0,0-.14,0Zm-1.43-.86a.27.27,0,0,0-.25.15.29.29,0,0,0,.11.39h0a.33.33,0,0,0,.13,0,.29.29,0,0,0,.16-.54h0l-.12,0Zm-1.49-.75a.28.28,0,0,0-.12.54h0l.12,0a.29.29,0,0,0,.26-.16A.29.29,0,0,0,47,43.8h0a.2.2,0,0,0-.11,0Zm-1.53-.65a.28.28,0,0,0-.27.19.28.28,0,0,0,.17.37h0l.1,0a.28.28,0,0,0,.27-.19.28.28,0,0,0-.15-.36h0l-.09,0Zm-1.58-.53a.29.29,0,0,0-.08.56h.09A.29.29,0,0,0,44,43a.28.28,0,0,0-.18-.35h-.1Zm-1.61-.41a.28.28,0,0,0-.28.22.29.29,0,0,0,.22.35h.06a.28.28,0,0,0,.28-.22.28.28,0,0,0-.21-.34h-.07Zm-1.64-.3a.3.3,0,0,0-.29.25.28.28,0,0,0,.25.32h0a.29.29,0,0,0,0-.57h-.05Zm-1.66-.17a.29.29,0,0,0,0,.57h0a.28.28,0,0,0,.29-.26.29.29,0,0,0-.27-.31h0Z"
        transform="translate(-10.49 -6.21)" />
    <path class="cls-2"
        d="M23.34,65.65h.11a.78.78,0,0,0,.78-.78V63.1a.78.78,0,0,0-.78-.78h-.11a.78.78,0,0,0-.78.78v1.77A.78.78,0,0,0,23.34,65.65Z"
        transform="translate(-10.49 -6.21)" />
    <path class="cls-2"
        d="M23.29,66.17V67h-.73a.16.16,0,0,0-.15.16.15.15,0,0,0,.15.15h1.77a.16.16,0,0,0,.16-.15.16.16,0,0,0-.16-.16H23.6v-.84a1.37,1.37,0,0,0,1.21-1.36.16.16,0,0,0-.15-.16.16.16,0,0,0-.16.16,1.05,1.05,0,0,1-1,1.06h-.16a1,1,0,0,1-1-1,.16.16,0,0,0-.16-.15.15.15,0,0,0-.15.15A1.34,1.34,0,0,0,23.29,66.17Z"
        transform="translate(-10.49 -6.21)" />
    <path class="cls-2"
        d="M71.37,6.68a46.37,46.37,0,0,1,11,1.17c3.14.81,4.25,1.77,4.25,2.4s-1.11,1.6-4.25,2.41a46.37,46.37,0,0,1-11,1.17,46.46,46.46,0,0,1-11-1.17c-3.14-.81-4.25-1.77-4.25-2.41s1.11-1.59,4.25-2.4a46.46,46.46,0,0,1,11-1.17m0-.47c-8.69,0-15.72,1.81-15.72,4s7,4.05,15.72,4.05,15.72-1.81,15.72-4.05-7-4-15.72-4Z"
        transform="translate(-10.49 -6.21)" />
    <path class="cls-2"
        d="M71.37,10.16c.23,0,.38.06.38.09s-.15.09-.38.09-.38-.05-.38-.09.14-.09.38-.09m0,0c-.22,0-.4,0-.4.1s.18.1.4.1.39,0,.39-.1-.18-.1-.39-.1Z"
        transform="translate(-10.49 -6.21)" />
    <ellipse class="cls-2" cx="60.87" cy="4.04" rx="0.39" ry="0.1" />
    <ellipse class="cls-2" cx="69.24" cy="4.04" rx="0.52" ry="0.13" />
    <path class="cls-2"
        d="M63.26,9.65c1.62,0,2.61.35,2.61.61s-1,.61-2.61.61-2.6-.36-2.6-.61,1-.61,2.6-.61m0-.08c-1.48,0-2.68.3-2.68.69s1.2.69,2.68.69S66,10.64,66,10.26s-1.21-.69-2.69-.69Z"
        transform="translate(-10.49 -6.21)" />
    <path class="cls-2"
        d="M79.73,9.65c1.62,0,2.61.35,2.61.61s-1,.61-2.61.61-2.6-.36-2.6-.61,1-.61,2.6-.61m0-.08c-1.48,0-2.68.3-2.68.69s1.2.69,2.68.69,2.69-.31,2.69-.69-1.2-.69-2.69-.69Z"
        transform="translate(-10.49 -6.21)" />
    <path class="cls-2"
        d="M71.37,6.72h0a.11.11,0,0,0-.11.11.1.1,0,0,0,.11.1h0a.1.1,0,0,0,.1-.1.11.11,0,0,0-.1-.11Zm-.54,0h0a.11.11,0,0,0-.1.11.11.11,0,0,0,.11.11h0a.11.11,0,1,0,0-.22Zm-.53,0h0a.1.1,0,0,0-.1.11.1.1,0,0,0,.1.1h0a.11.11,0,0,0,.11-.11.11.11,0,0,0-.11-.1Zm-.53,0h0a.11.11,0,0,0-.11.11.11.11,0,0,0,.11.1h0a.11.11,0,0,0,.11-.11.12.12,0,0,0-.11-.1Zm-.53,0h0a.11.11,0,0,0-.11.11.11.11,0,0,0,.11.1h0a.1.1,0,0,0,.1-.11.11.11,0,0,0-.1-.11Zm-.53,0h0a.1.1,0,0,0-.1.11.11.11,0,0,0,.11.1h0a.1.1,0,0,0,.1-.11.11.11,0,0,0-.1-.11Zm-.54,0h0a.11.11,0,0,0,0,.21h0a.11.11,0,0,0,0-.21Zm-.53,0h0a.11.11,0,0,0,0,.21h0a.11.11,0,1,0,0-.21Zm-.53,0h0A.11.11,0,0,0,67,7a.11.11,0,0,0,.1.1h0a.12.12,0,0,0,.1-.12.11.11,0,0,0-.11-.1Zm-.53,0h0a.11.11,0,0,0-.1.12.11.11,0,0,0,.1.1h0a.12.12,0,0,0,.1-.12.11.11,0,0,0-.11-.1Zm-.53,0h0a.1.1,0,0,0-.09.11.1.1,0,0,0,.1.1h0a.12.12,0,0,0,.1-.12A.11.11,0,0,0,66.05,7Zm-.53,0h0a.1.1,0,0,0-.09.11.1.1,0,0,0,.1.1h0a.12.12,0,0,0,.1-.12A.11.11,0,0,0,65.52,7Zm-.53,0h0a.1.1,0,0,0-.09.12.12.12,0,0,0,.11.1h0a.1.1,0,0,0,.09-.11.11.11,0,0,0-.11-.1Zm-.52.06h0a.11.11,0,0,0-.09.12.11.11,0,0,0,.11.1h0a.09.09,0,0,0,.09-.11.11.11,0,0,0-.1-.1Zm-.53.07h0a.12.12,0,0,0-.1.12.12.12,0,0,0,.11.09h0A.1.1,0,0,0,64,7.27a.1.1,0,0,0-.1-.09Zm-.53.07h0a.11.11,0,0,0-.09.13.11.11,0,0,0,.1.09h0a.1.1,0,0,0,.09-.12.12.12,0,0,0-.11-.09Zm-.52.08h0a.11.11,0,0,0-.09.13.12.12,0,0,0,.11.09h0A.1.1,0,0,0,63,7.42a.11.11,0,0,0-.1-.09Zm-.53.09h0a.11.11,0,0,0-.09.13.11.11,0,0,0,.1.09h0a.1.1,0,0,0,.09-.12.12.12,0,0,0-.11-.09Zm-.52.1h0a.1.1,0,0,0-.08.12.1.1,0,0,0,.1.09h0a.1.1,0,0,0,.08-.13.1.1,0,0,0-.1-.08Zm-.52.1h0a.1.1,0,0,0-.08.13.11.11,0,0,0,.1.09h0a.09.09,0,0,0,.08-.12.1.1,0,0,0-.1-.09Zm-.52.11h0a.1.1,0,0,0-.08.13.1.1,0,0,0,.1.08h0a.1.1,0,0,0,.08-.13.11.11,0,0,0-.1-.09Zm-.52.13h0a.11.11,0,0,0-.08.13.13.13,0,0,0,.11.08h0a.11.11,0,0,0,.08-.13.11.11,0,0,0-.11-.08ZM59.77,8h0a.12.12,0,0,0-.08.14.12.12,0,0,0,.1.07h0a.11.11,0,0,0,0-.21Zm-.5.15h0a.09.09,0,0,0-.07.13.1.1,0,0,0,.1.08h0a.12.12,0,0,0,.07-.14.12.12,0,0,0-.1-.07Zm-.51.17h0a.1.1,0,0,0-.06.13.09.09,0,0,0,.1.07h0a.11.11,0,0,0,.06-.14.1.1,0,0,0-.1-.07Zm-.49.19h-.05a.1.1,0,0,0,0,.14.09.09,0,0,0,.09.06h.05a.1.1,0,0,0,.06-.14.11.11,0,0,0-.1-.06Zm-.48.21h0a.1.1,0,0,0-.05.14.11.11,0,0,0,.1.06h.05a.12.12,0,0,0,0-.15.13.13,0,0,0-.1-.06ZM57.33,9l0,0h0a.11.11,0,0,0,0,.15.14.14,0,0,0,.1,0h.06a.11.11,0,0,0,0-.15.11.11,0,0,0-.09,0Zm-.42.3a.11.11,0,0,0-.07,0h0a.11.11,0,0,0,0,.15.1.1,0,0,0,.09,0l.06,0h0a.1.1,0,0,0,0-.15.09.09,0,0,0-.08,0Zm-.34.37a.1.1,0,0,0-.09,0h0a.11.11,0,0,0,0,.15l.06,0a.11.11,0,0,0,.09,0h0a.1.1,0,0,0,0-.15.07.07,0,0,0-.06,0Zm-.18.44a.1.1,0,0,0-.1.09h0a.1.1,0,0,0,.09.12h0a.11.11,0,0,0,.11-.1h0a.1.1,0,0,0-.1-.11Zm.1.45h-.05a.11.11,0,0,0,0,.15h0a.12.12,0,0,0,.09.05h0a.1.1,0,0,0,.05-.14h0a.11.11,0,0,0-.1-.06Zm.31.39a.11.11,0,0,0-.08,0,.12.12,0,0,0,0,.16h0a.11.11,0,0,0,.07,0,.11.11,0,0,0,.08,0,.11.11,0,0,0,0-.15h0a.11.11,0,0,0-.07,0Zm.4.32a.1.1,0,0,0-.09,0,.1.1,0,0,0,0,.14h0l.06,0a.12.12,0,0,0,.09-.05.11.11,0,0,0,0-.15H57.2Zm.45.26a.1.1,0,0,0-.09.06.1.1,0,0,0,0,.14h.06a.09.09,0,0,0,.09-.06.1.1,0,0,0,0-.14h-.06Zm.48.23a.11.11,0,0,0-.1.06.11.11,0,0,0,0,.14h.05a.09.09,0,0,0,.1-.06.1.1,0,0,0,0-.14h0Zm.49.19a.1.1,0,0,0-.1.07.1.1,0,0,0,.06.14h0a.1.1,0,0,0,.1-.07.1.1,0,0,0-.06-.14h0Zm.5.18a.11.11,0,0,0-.11.07.13.13,0,0,0,.07.14h0a.1.1,0,0,0,.1-.07.11.11,0,0,0-.06-.14h0Zm.5.15a.11.11,0,0,0-.1.08.09.09,0,0,0,.07.13h0a.1.1,0,0,0,.1-.08.1.1,0,0,0-.07-.13h0Zm.51.14a.12.12,0,0,0-.1.08.1.1,0,0,0,.08.13h0a.1.1,0,0,0,.1-.08.11.11,0,0,0-.07-.13h0Zm.52.13a.12.12,0,0,0-.11.09.1.1,0,0,0,.08.12h0a.11.11,0,0,0,.11-.08.11.11,0,0,0-.08-.13h0Zm.51.12a.11.11,0,0,0-.1.08.11.11,0,0,0,.08.13h0a.12.12,0,0,0,.11-.09.12.12,0,0,0-.09-.13h0Zm.52.11a.1.1,0,0,0-.1.08.11.11,0,0,0,.08.13h0a.11.11,0,0,0,.11-.08.11.11,0,0,0-.09-.13h0Zm.53.1a.11.11,0,0,0-.11.08.11.11,0,0,0,.09.13h0a.1.1,0,0,0,.11-.09.11.11,0,0,0-.09-.12h0Zm.52.09a.11.11,0,0,0-.11.09.12.12,0,0,0,.09.12h0a.1.1,0,0,0,.1-.09.1.1,0,0,0-.08-.12h0Zm.52.08a.11.11,0,0,0-.1.09.1.1,0,0,0,.09.12h0a.1.1,0,0,0,.11-.09.1.1,0,0,0-.09-.12h0Zm.53.07a.1.1,0,0,0-.1.1.1.1,0,0,0,.09.12h0a.12.12,0,0,0,.11-.09.11.11,0,0,0-.1-.12h0Zm.53.07a.12.12,0,0,0-.11.1.12.12,0,0,0,.1.12h0a.1.1,0,0,0,.1-.1.11.11,0,0,0-.09-.12h0Zm.53.07a.11.11,0,0,0-.11.09.11.11,0,0,0,.09.12h0a.11.11,0,0,0,.11-.09.1.1,0,0,0-.09-.12h0Zm.53,0a.1.1,0,0,0-.11.1.11.11,0,0,0,.09.12h0a.11.11,0,0,0,.11-.1.11.11,0,0,0-.1-.12h0Zm.52.05a.11.11,0,0,0-.1.1.11.11,0,0,0,.09.12h0a.11.11,0,0,0,.11-.1.12.12,0,0,0-.1-.12h0Zm.53.05a.1.1,0,0,0-.1.1.1.1,0,0,0,.1.11h0a.11.11,0,0,0,.11-.09.12.12,0,0,0-.1-.12h0Zm.54,0a.1.1,0,0,0-.11.1.1.1,0,0,0,.1.11h0a.1.1,0,0,0,.11-.09.12.12,0,0,0-.1-.12Zm.53,0a.1.1,0,0,0-.11.1.11.11,0,0,0,.1.11h0a.11.11,0,0,0,0-.21Zm.53,0a.11.11,0,1,0,0,.21h0a.11.11,0,0,0,0-.21Zm.53,0a.11.11,0,0,0-.11.1.12.12,0,0,0,.1.12h0a.11.11,0,0,0,.1-.11s0-.1-.1-.11Zm.53,0a.12.12,0,0,0-.11.11.11.11,0,0,0,.11.11h0a.1.1,0,0,0,.1-.11c0-.05,0-.1-.1-.11Zm.53,0a.12.12,0,0,0-.11.1.11.11,0,0,0,.11.11h0a.11.11,0,0,0,.11-.1.11.11,0,0,0-.11-.11Zm.53,0a.11.11,0,0,0-.1.11.1.1,0,0,0,.1.11h0a.11.11,0,0,0,0-.22h0Zm.54,0a.11.11,0,0,0-.11.11.1.1,0,0,0,.1.1h0a.1.1,0,0,0,.11-.1.11.11,0,0,0-.11-.11Zm.53,0a.11.11,0,0,0,0,.22h0a.11.11,0,0,0,0-.22Zm.54,0h0a.11.11,0,0,0,0,.22h0a.1.1,0,0,0,.1-.11.1.1,0,0,0-.1-.11Zm.53,0h0a.1.1,0,0,0-.1.11.1.1,0,0,0,.1.1h0a.11.11,0,0,0,.11-.11.1.1,0,0,0-.11-.1Zm.53,0h0a.1.1,0,0,0-.1.11.1.1,0,0,0,.1.1h0a.11.11,0,0,0,.11-.11.1.1,0,0,0-.11-.1Zm.53,0h0a.12.12,0,0,0-.1.11.11.11,0,0,0,.11.11h0a.1.1,0,0,0,.1-.11.11.11,0,0,0-.11-.11Zm.54,0h0a.1.1,0,0,0-.1.11.11.11,0,0,0,.11.1h0a.1.1,0,0,0,.1-.11.11.11,0,0,0-.1-.11Zm.53,0h0a.12.12,0,0,0-.1.11.11.11,0,0,0,.11.11h0a.11.11,0,0,0,.1-.12.11.11,0,0,0-.1-.1Zm.53,0h0a.13.13,0,0,0-.1.12.12.12,0,0,0,.11.1h0a.11.11,0,1,0,0-.22Zm.53,0h0a.13.13,0,0,0-.1.12.13.13,0,0,0,.11.1h0a.1.1,0,0,0,.1-.11.11.11,0,0,0-.11-.1Zm.53,0h0a.11.11,0,0,0-.09.12.1.1,0,0,0,.1.1h0a.12.12,0,0,0,.1-.12.12.12,0,0,0-.11-.1Zm.53,0h0a.1.1,0,0,0-.09.12.11.11,0,0,0,.1.1h0a.1.1,0,0,0,.1-.11.11.11,0,0,0-.11-.1Zm.53,0h0a.1.1,0,0,0-.09.12.1.1,0,0,0,.1.1h0a.12.12,0,0,0,.1-.12.12.12,0,0,0-.11-.1Zm.53-.05h0a.12.12,0,0,0-.1.12.12.12,0,0,0,.11.09h0a.11.11,0,0,0,.1-.12.12.12,0,0,0-.11-.09Zm.53-.06h0a.12.12,0,0,0-.1.12.13.13,0,0,0,.11.1h0a.11.11,0,0,0,0-.21Zm.53-.07h0a.1.1,0,0,0-.09.12.11.11,0,0,0,.11.09h0a.1.1,0,0,0,.09-.12.11.11,0,0,0-.1-.1Zm.52-.07h0a.1.1,0,0,0-.09.12.11.11,0,0,0,.1.09h0a.11.11,0,0,0,.09-.12.12.12,0,0,0-.11-.1ZM79.7,13h0a.1.1,0,0,0-.09.12.12.12,0,0,0,.11.09h0a.11.11,0,0,0,.09-.12.11.11,0,0,0-.1-.1Zm.52-.08h0a.11.11,0,0,0-.09.13.1.1,0,0,0,.1.08h0a.1.1,0,0,0,.09-.12.12.12,0,0,0-.11-.09Zm.52-.09h0a.11.11,0,0,0-.09.12.11.11,0,0,0,.11.09h0a.11.11,0,0,0,.08-.13.1.1,0,0,0-.11-.08Zm.53-.11h0a.11.11,0,0,0-.09.12.12.12,0,0,0,.11.09h0a.11.11,0,0,0,.08-.13.11.11,0,0,0-.1-.09Zm.52-.11h0a.11.11,0,0,0-.08.12.12.12,0,0,0,.11.09h0a.1.1,0,0,0,.08-.12.12.12,0,0,0-.1-.09Zm.51-.12h0a.1.1,0,0,0-.08.12.12.12,0,0,0,.1.09h0a.11.11,0,0,0,.08-.13.12.12,0,0,0-.11-.08Zm.51-.13h0a.11.11,0,0,0,0,.21h0a.11.11,0,0,0,0-.21Zm.51-.15h0a.11.11,0,0,0-.07.13.12.12,0,0,0,.11.08h0a.11.11,0,0,0,0-.21Zm.51-.16h0a.11.11,0,0,0-.06.14.11.11,0,0,0,.1.07h0a.1.1,0,0,0,.07-.13.1.1,0,0,0-.1-.07Zm.49-.19h0a.1.1,0,0,0-.06.14.1.1,0,0,0,.09.07h0a.11.11,0,0,0,.06-.14.12.12,0,0,0-.1-.07Zm.49-.21h-.06a.11.11,0,0,0,0,.14.11.11,0,0,0,.1.06h0a.11.11,0,0,0,.05-.14.11.11,0,0,0-.09-.07Zm.46-.24,0,0h0a.11.11,0,0,0,0,.15.12.12,0,0,0,.1,0h.06a.1.1,0,0,0,0-.14.1.1,0,0,0-.09-.06Zm.44-.28-.07,0h0a.1.1,0,0,0,0,.15.09.09,0,0,0,.08,0l.06,0h0a.1.1,0,0,0,0-.15.12.12,0,0,0-.08,0Zm.37-.34a.11.11,0,0,0-.08,0h0A.11.11,0,0,0,86,11l.06,0a.13.13,0,0,0,.09,0h0a.11.11,0,0,0,0-.15l-.07,0Zm.23-.42a.11.11,0,0,0-.1.07h0a.1.1,0,0,0,.07.13h0a.12.12,0,0,0,.11-.08h0a.11.11,0,0,0-.08-.13Zm0-.46h0a.11.11,0,0,0-.07.14h0a.1.1,0,0,0,.1.08h0A.11.11,0,0,0,86.4,10h0a.11.11,0,0,0-.11-.07ZM86,9.47a.11.11,0,0,0-.07,0,.11.11,0,0,0,0,.15h0a.11.11,0,0,0,.08,0l.07,0a.11.11,0,0,0,0-.15h0a.12.12,0,0,0-.08,0Zm-.38-.33a.11.11,0,0,0-.09,0,.11.11,0,0,0,0,.15h0l.06,0a.11.11,0,0,0,.09,0,.1.1,0,0,0,0-.15h0l-.06,0Zm-.44-.28a.11.11,0,0,0-.1.06.1.1,0,0,0,0,.14h0a.12.12,0,0,0,.1-.05.11.11,0,0,0,0-.15h0l-.05,0Zm-.47-.23a.11.11,0,0,0-.1.06.11.11,0,0,0,0,.14h.06a.1.1,0,0,0,.09-.07.11.11,0,0,0,0-.14h-.05Zm-.49-.21a.12.12,0,0,0-.1.07.11.11,0,0,0,.06.14h.05a.1.1,0,0,0,.1-.07.12.12,0,0,0-.06-.14h0Zm-.49-.18a.1.1,0,0,0-.1.08.1.1,0,0,0,.06.13h0a.12.12,0,0,0,.11-.07.13.13,0,0,0-.07-.14h0Zm-.51-.16a.11.11,0,0,0-.1.08.1.1,0,0,0,.07.13h0a.1.1,0,0,0,.1-.08.1.1,0,0,0-.07-.13h0Zm-.51-.14a.11.11,0,0,0-.1.08.11.11,0,0,0,.08.13h0a.1.1,0,0,0,.1-.08.1.1,0,0,0-.07-.13h0Zm-.51-.13a.1.1,0,0,0-.1.08A.11.11,0,0,0,82.2,8h0a.1.1,0,0,0,.1-.08.1.1,0,0,0-.08-.13h0Zm-.52-.12a.1.1,0,0,0-.1.08.11.11,0,0,0,.08.13h0a.12.12,0,0,0,.11-.08.11.11,0,0,0-.09-.13h0Zm-.52-.11a.1.1,0,0,0-.1.08.11.11,0,0,0,.08.13h0a.11.11,0,0,0,.11-.09.11.11,0,0,0-.09-.12h0Zm-.52-.11a.11.11,0,0,0,0,.22h0a.12.12,0,0,0,.11-.09.1.1,0,0,0-.09-.12h0Zm-.52-.09a.12.12,0,0,0-.11.09.1.1,0,0,0,.09.12h0a.11.11,0,0,0,.1-.09.11.11,0,0,0-.09-.13h0Zm-.53-.08a.11.11,0,0,0-.1.09.1.1,0,0,0,.09.12h0a.12.12,0,0,0,.11-.09.1.1,0,0,0-.09-.12h0Zm-.52-.08a.12.12,0,0,0-.11.09.1.1,0,0,0,.09.12h0a.11.11,0,0,0,.1-.1.1.1,0,0,0-.09-.12h0Zm-.53-.07a.1.1,0,0,0-.1.09.1.1,0,0,0,.09.12h0a.12.12,0,0,0,.11-.09.12.12,0,0,0-.1-.12h0ZM78,7.08a.11.11,0,0,0-.1.1A.1.1,0,0,0,78,7.3h0a.12.12,0,0,0,.11-.09.11.11,0,0,0-.1-.12h0Zm-.53,0a.1.1,0,0,0-.1.09.1.1,0,0,0,.09.12h0a.11.11,0,0,0,.11-.09.11.11,0,0,0-.1-.12h0ZM77,7a.11.11,0,0,0-.11.1.11.11,0,0,0,.1.12h0a.11.11,0,0,0,.11-.1A.11.11,0,0,0,77,7h0Zm-.53,0a.1.1,0,0,0-.11.09.11.11,0,0,0,.1.12h0a.1.1,0,0,0,.11-.1.1.1,0,0,0-.1-.11h0Zm-.53,0a.11.11,0,0,0-.11.1.11.11,0,0,0,.1.12h0a.11.11,0,1,0,0-.21h0Zm-.54,0a.1.1,0,0,0-.1.1.1.1,0,0,0,.1.11h0a.11.11,0,1,0,0-.21h0Zm-.53,0a.1.1,0,0,0-.1.1.1.1,0,0,0,.1.11h0a.11.11,0,0,0,0-.21h0Zm-.53,0a.1.1,0,0,0-.1.1.1.1,0,0,0,.1.11h0a.11.11,0,1,0,0-.21h0Zm-.53,0a.11.11,0,0,0-.11.1A.11.11,0,0,0,73.8,7h0a.12.12,0,0,0,.11-.1.11.11,0,0,0-.11-.11h0Zm-.53,0a.1.1,0,0,0-.11.1.11.11,0,0,0,.11.11h0a.1.1,0,0,0,.1-.1.1.1,0,0,0-.1-.11Zm-.53,0a.11.11,0,0,0,0,.22h0a.11.11,0,0,0,0-.22Zm-.53,0a.1.1,0,0,0-.11.1.11.11,0,0,0,.1.11h0a.11.11,0,0,0,.11-.11.1.1,0,0,0-.1-.1Zm-.54,0a.1.1,0,0,0-.1.11.09.09,0,0,0,.1.1h0a.1.1,0,0,0,.11-.1.11.11,0,0,0-.11-.11Z"
        transform="translate(-10.49 -6.21)" />
    <path class="cls-2"
        d="M71.38,7h0a.09.09,0,0,0-.08.08.09.09,0,0,0,.08.09h0a.08.08,0,0,0,.08-.09A.08.08,0,0,0,71.38,7Zm-.5,0h0a.09.09,0,0,0-.08.09.09.09,0,0,0,.08.08h0A.09.09,0,0,0,71,7.09.09.09,0,0,0,70.88,7Zm-.5,0h0a.09.09,0,0,0-.08.08.08.08,0,0,0,.09.08h0a.08.08,0,1,0,0-.16Zm-.5,0h0a.09.09,0,0,0-.08.08.08.08,0,0,0,.09.08h0A.09.09,0,0,0,70,7.11.08.08,0,0,0,69.88,7Zm-.49,0h0a.09.09,0,0,0-.09.09.1.1,0,0,0,.09.08h0a.09.09,0,0,0,.08-.09A.09.09,0,0,0,69.39,7Zm-.5,0h0a.08.08,0,0,0-.08.09.08.08,0,0,0,.08.08h0A.09.09,0,0,0,69,7.14a.08.08,0,0,0-.08-.08Zm-.5,0h0a.08.08,0,0,0-.08.09.09.09,0,0,0,.08.08h0a.09.09,0,0,0,.08-.09.08.08,0,0,0-.08-.08Zm-.5,0h0a.08.08,0,0,0,0,.16h0A.07.07,0,0,0,68,7.18a.08.08,0,0,0-.08-.08Zm-.5,0h0a.08.08,0,0,0,0,.16h0a.09.09,0,0,0,.08-.09.1.1,0,0,0-.09-.08Zm-.49,0h0a.09.09,0,0,0-.08.09.1.1,0,0,0,.09.08h0A.09.09,0,0,0,67,7.25a.08.08,0,0,0-.08-.08Zm-.5,0h0a.07.07,0,0,0-.07.09.09.09,0,0,0,.08.08h0a.09.09,0,0,0,.07-.1.08.08,0,0,0-.08-.07Zm-.5,0h0a.09.09,0,0,0-.08.09.08.08,0,0,0,.08.08h0A.08.08,0,0,0,66,7.33a.08.08,0,0,0-.08-.08Zm-.49,0h0a.09.09,0,0,0-.08.09.09.09,0,0,0,.09.08h0a.09.09,0,0,0,.08-.09s0-.08-.08-.08Zm-.5,0h0a.09.09,0,0,0-.07.1.08.08,0,0,0,.08.07h0A.08.08,0,0,0,65,7.43a.08.08,0,0,0-.08-.08Zm-.5.06h0a.1.1,0,0,0-.08.1.09.09,0,0,0,.09.07h0a.09.09,0,0,0,.08-.09.09.09,0,0,0-.09-.08Zm-.49.07h0a.07.07,0,0,0-.07.09.08.08,0,0,0,.08.08h0A.07.07,0,0,0,64,7.55a.08.08,0,0,0-.08-.07Zm-.49.07h0a.08.08,0,0,0-.07.09.08.08,0,0,0,.08.08h0a.07.07,0,0,0,.07-.09.08.08,0,0,0-.08-.07Zm-.5.07h0s-.07,0-.07.09a.1.1,0,0,0,.09.07h0a.1.1,0,0,0,.07-.1.1.1,0,0,0-.09-.07Zm-.49.09h0a.08.08,0,0,0-.07.1.1.1,0,0,0,.09.07h0s.07,0,.07-.09a.1.1,0,0,0-.09-.07ZM62,7.8h0a.09.09,0,0,0-.07.1A.1.1,0,0,0,62,8h0a.09.09,0,0,0,0-.17Zm-.48.1h0a.08.08,0,0,0-.06.1.08.08,0,0,0,.08.07h0a.09.09,0,0,0,.07-.1.09.09,0,0,0-.08-.07ZM61,8h0a.09.09,0,0,0-.06.1.08.08,0,0,0,.08.07h0a.08.08,0,0,0,.06-.1A.08.08,0,0,0,61,8Zm-.48.12h0a.09.09,0,0,0,0,.17h0a.08.08,0,0,0,0-.16ZM60,8.26h0a.08.08,0,0,0,0,.16h0a.08.08,0,0,0,.06-.1A.08.08,0,0,0,60,8.26Zm-.48.15h0a.09.09,0,0,0,0,.11.09.09,0,0,0,.08.06h0a.09.09,0,0,0,0-.11.08.08,0,0,0-.08-.05Zm-.47.16h0a.07.07,0,0,0,0,.1.08.08,0,0,0,.08.06h0a.08.08,0,0,0,0-.11.08.08,0,0,0-.08,0Zm-.46.18h0a.08.08,0,0,0,0,.11.09.09,0,0,0,.08.05h0a.08.08,0,0,0,0-.11.08.08,0,0,0-.08-.05ZM58.17,9h-.05a.08.08,0,0,0,0,.11.08.08,0,0,0,.07.05h.05a.07.07,0,0,0,0-.11.08.08,0,0,0-.07,0Zm-.42.25,0,0h0a.11.11,0,0,0,0,.12.1.1,0,0,0,.07,0l0,0h0a.1.1,0,0,0,0-.12.13.13,0,0,0-.07,0Zm-.38.31a.07.07,0,0,0-.06,0h0a.07.07,0,0,0,0,.12l.06,0a.09.09,0,0,0,.06,0h0a.09.09,0,0,0,0-.12s0,0-.06,0Zm-.27.37A.07.07,0,0,0,57,10h0a.09.09,0,0,0,0,.11h0a.08.08,0,0,0,.08-.05h0a.08.08,0,0,0,0-.11Zm0,.44h0a.09.09,0,0,0-.06.11h0a.08.08,0,0,0,.08.07h0a.08.08,0,0,0,.06-.1h0a.09.09,0,0,0-.08-.06Zm.22.4,0,0a.08.08,0,0,0,0,.12h0l.06,0a.09.09,0,0,0,.06,0,.08.08,0,0,0,0-.11h0a.07.07,0,0,0-.06,0Zm.35.32a.08.08,0,0,0-.06,0,.09.09,0,0,0,0,.12h0l0,0a.1.1,0,0,0,.07,0,.08.08,0,0,0,0-.12h0l0,0Zm.42.27a.09.09,0,0,0-.08,0,.08.08,0,0,0,0,.11h0a.1.1,0,0,0,.08-.05.08.08,0,0,0,0-.11h0Zm.44.22a.07.07,0,0,0-.08.05.08.08,0,0,0,0,.11h0a.08.08,0,0,0,.08-.05.08.08,0,0,0,0-.11h0Zm.45.19a.1.1,0,0,0-.08,0,.1.1,0,0,0,.05.11h0a.08.08,0,0,0,.08-.06.09.09,0,0,0,0-.11h0Zm.47.16a.1.1,0,0,0-.08.06.09.09,0,0,0,0,.11h0a.09.09,0,0,0,.08-.05.09.09,0,0,0-.06-.11h0Zm.47.15a.1.1,0,0,0-.08.06.09.09,0,0,0,.06.11h0a.08.08,0,0,0,.08-.06.08.08,0,0,0-.06-.1h0Zm.48.14a.08.08,0,0,0-.08.06.08.08,0,0,0,.06.1h0a.09.09,0,0,0,.08-.06.09.09,0,0,0-.06-.11h0Zm.48.12a.09.09,0,0,0-.08.07.09.09,0,0,0,.06.1h0a.08.08,0,0,0,0-.16h0Zm.49.11a.08.08,0,0,0-.08.07.09.09,0,0,0,.06.1h0a.08.08,0,0,0,.08-.06.08.08,0,0,0-.07-.1h0Zm.49.1a.1.1,0,0,0-.09.07.09.09,0,0,0,.07.1h0a.09.09,0,0,0,.09-.06.08.08,0,0,0-.07-.1h0Zm.49.1a.1.1,0,0,0-.09.07.07.07,0,0,0,.07.09h0a.1.1,0,0,0,.09-.07.1.1,0,0,0-.07-.1h0Zm.49.08a.1.1,0,0,0-.09.07.1.1,0,0,0,.07.1h0a.1.1,0,0,0,.09-.07s0-.09-.07-.09h0Zm.49.08a.08.08,0,0,0-.08.07.08.08,0,0,0,.07.1h0a.08.08,0,0,0,.08-.07.09.09,0,0,0-.07-.1h0Zm.49.07a.09.09,0,0,0-.08.08.07.07,0,0,0,.07.09h0a.08.08,0,0,0,.08-.07.07.07,0,0,0-.07-.09h0Zm.5.07a.09.09,0,0,0-.09.07.1.1,0,0,0,.08.1h0a.09.09,0,0,0,.09-.07.1.1,0,0,0-.08-.1h0Zm.49.06a.08.08,0,0,0-.08.08.08.08,0,0,0,.07.09h0a.08.08,0,0,0,.08-.07.09.09,0,0,0-.07-.1h0Zm.5.06a.09.09,0,0,0-.09.07.08.08,0,0,0,.08.09h0a.09.09,0,0,0,.09-.07.08.08,0,0,0-.08-.09h0Zm.49.05a.08.08,0,0,0-.08.07.07.07,0,0,0,.07.09h0a.08.08,0,0,0,.08-.07.07.07,0,0,0-.07-.09h0Zm.5,0a.08.08,0,0,0-.08.08s0,.08.07.09h0a.08.08,0,0,0,.08-.08.09.09,0,0,0-.08-.09h0Zm.5,0a.09.09,0,0,0-.09.08.09.09,0,0,0,.08.09h0a.09.09,0,0,0,.09-.08.09.09,0,0,0-.08-.09Zm.49,0a.08.08,0,0,0-.08.07.08.08,0,0,0,.08.09h0a.09.09,0,0,0,.08-.08.07.07,0,0,0-.07-.09h0Zm.5,0a.08.08,0,0,0-.08.08s0,.08.08.09h0a.09.09,0,0,0,.08-.08.08.08,0,0,0-.08-.09h0Zm.5,0a.08.08,0,0,0-.08.08.07.07,0,0,0,.07.09h0a.08.08,0,1,0,0-.16Zm.5,0a.09.09,0,0,0-.09.08.11.11,0,0,0,.08.09h0a.09.09,0,0,0,.08-.08.09.09,0,0,0-.08-.09Zm.5,0a.08.08,0,0,0-.09.08.09.09,0,0,0,.08.08h0a.08.08,0,0,0,.09-.08.09.09,0,0,0-.08-.08Zm.49,0a.09.09,0,0,0-.08.08.09.09,0,0,0,.08.09h0a.1.1,0,0,0,.09-.08.09.09,0,0,0-.09-.09h0Zm.5,0a.09.09,0,0,0-.08.08.09.09,0,0,0,.08.09h0a.08.08,0,0,0,.08-.08.08.08,0,0,0-.08-.09Zm.5,0a.08.08,0,0,0-.08.08.09.09,0,0,0,.08.09h0a.08.08,0,0,0,.08-.09.08.08,0,0,0-.08-.08Zm.5,0a.08.08,0,0,0-.08.08.08.08,0,0,0,.08.09h0a.08.08,0,0,0,.08-.09.09.09,0,0,0-.08-.08Zm.51,0h0a.08.08,0,0,0-.08.08.08.08,0,0,0,.08.09h0a.09.09,0,0,0,.08-.09.09.09,0,0,0-.08-.08Zm.5,0h0a.09.09,0,0,0-.09.09.09.09,0,0,0,.09.08h0a.09.09,0,0,0,.08-.08.09.09,0,0,0-.08-.09Zm.49,0h0a.08.08,0,1,0,0,.16h0a.09.09,0,0,0,.08-.08.08.08,0,0,0-.09-.08Zm.5,0h0a.09.09,0,1,0,0,.17h0a.09.09,0,0,0,0-.17Zm.5,0h0a.08.08,0,0,0,0,.16h0a.09.09,0,0,0,.08-.08.09.09,0,0,0-.09-.08Zm.5,0h0a.08.08,0,0,0,0,.16h0a.08.08,0,0,0,.08-.09.08.08,0,0,0-.08-.08Zm.5,0h0a.08.08,0,0,0-.08.09.09.09,0,0,0,.08.08h0a.08.08,0,0,0,.08-.09.08.08,0,0,0-.08-.08Zm.5,0h0a.07.07,0,0,0-.07.09.08.08,0,0,0,.08.08h0a.08.08,0,0,0,.08-.09.08.08,0,0,0-.08-.08Zm.49,0h0a.08.08,0,0,0-.08.09.1.1,0,0,0,.09.08h0a.08.08,0,0,0,.08-.08.09.09,0,0,0-.09-.08Zm.5,0h0a.08.08,0,0,0-.08.09.09.09,0,0,0,.08.08h0a.11.11,0,0,0,.08-.09.09.09,0,0,0-.09-.08Zm.5,0h0a.07.07,0,0,0-.07.09.09.09,0,0,0,.08.08h0a.07.07,0,0,0,.07-.09.08.08,0,0,0-.08-.07Zm.49,0h0a.09.09,0,0,0-.08.09.09.09,0,0,0,.09.08h0a.1.1,0,0,0,.08-.1.09.09,0,0,0-.09-.07Zm.5-.05h0a.07.07,0,0,0-.07.09.09.09,0,0,0,.08.08h0a.07.07,0,0,0,.07-.09.08.08,0,0,0-.08-.07Zm.5-.06h0a.09.09,0,1,0,0,.17h0a.1.1,0,0,0,.07-.1.08.08,0,0,0-.08-.07Zm.49-.06h0a.08.08,0,0,0-.07.09.08.08,0,0,0,.08.07h0A.07.07,0,0,0,78.8,13a.08.08,0,0,0-.08-.07Zm.49-.07h0s-.07,0-.07.09a.1.1,0,0,0,.09.07h0s.07-.05.07-.09a.1.1,0,0,0-.09-.07Zm.5-.08h0a.08.08,0,0,0-.07.1.08.08,0,0,0,.08.07h0a.08.08,0,0,0,.07-.1.08.08,0,0,0-.08-.07Zm.49-.08h0a.08.08,0,0,0-.07.1.08.08,0,0,0,.08.07h0a.07.07,0,0,0,.07-.09.08.08,0,0,0-.08-.07Zm.49-.09h0a.08.08,0,0,0-.06.1.08.08,0,0,0,.08.07h0a.08.08,0,0,0,.07-.09.08.08,0,0,0-.08-.07Zm.49-.1h0a.09.09,0,0,0-.06.1.08.08,0,0,0,.08.07h0a.09.09,0,0,0,.07-.1.09.09,0,0,0-.08-.07Zm.48-.11h0a.08.08,0,0,0-.07.1.08.08,0,0,0,.08.06h0a.08.08,0,0,0,.06-.1.08.08,0,0,0-.08-.07Zm.49-.12h0a.08.08,0,0,0-.06.1.08.08,0,0,0,.08.06h0a.09.09,0,0,0,.06-.1.09.09,0,0,0-.08-.07Zm.48-.12h0a.07.07,0,0,0,0,.1.08.08,0,0,0,.08.07h0a.09.09,0,0,0,.06-.1.08.08,0,0,0-.08-.06ZM83.1,12h0a.08.08,0,0,0-.06.1.09.09,0,0,0,.08.06h0a.09.09,0,0,0,.05-.11A.08.08,0,0,0,83.1,12Zm.47-.16h0a.09.09,0,0,0,0,.11.1.1,0,0,0,.08.05h0a.09.09,0,0,0,.05-.11.08.08,0,0,0-.08-.06Zm.46-.18h0a.08.08,0,0,0,0,.11.08.08,0,0,0,.08,0h0a.08.08,0,0,0,0-.11.08.08,0,0,0-.08-.05Zm.45-.2h0a.08.08,0,0,0,0,.11.08.08,0,0,0,.07.05h0a.1.1,0,0,0,0-.12.09.09,0,0,0-.08,0Zm.43-.24h0a.1.1,0,0,0,0,.12.1.1,0,0,0,.07,0l0,0h0a.09.09,0,0,0,0-.12.09.09,0,0,0-.07,0Zm.39-.3a.06.06,0,0,0-.06,0h0a.09.09,0,0,0,0,.12.07.07,0,0,0,.06,0l.06,0h0a.08.08,0,0,0,0-.12.09.09,0,0,0-.06,0Zm.29-.36a.08.08,0,0,0-.07,0h0a.08.08,0,0,0,0,.11h0a.08.08,0,0,0,.07,0h0a.07.07,0,0,0,0-.11Zm.09-.43h0a.09.09,0,0,0-.08.09h0a.1.1,0,0,0,.09.07h0a.07.07,0,0,0,.07-.09h0a.08.08,0,0,0-.08-.07Zm-.18-.41h0a.08.08,0,0,0,0,.12h0a.09.09,0,0,0,.07,0l0,0a.07.07,0,0,0,0-.11h0a.07.07,0,0,0-.06,0Zm-.34-.34a.09.09,0,0,0-.07,0,.08.08,0,0,0,0,.12h0a.06.06,0,0,0,0,0,.09.09,0,0,0,.07,0,.09.09,0,0,0,0-.12h0l0,0Zm-.41-.27a.08.08,0,0,0-.07,0,.1.1,0,0,0,0,.12h.05a.07.07,0,0,0,.07,0,.08.08,0,0,0,0-.11h0Zm-.43-.23a.08.08,0,0,0-.08.05.08.08,0,0,0,0,.11h0a.07.07,0,0,0,.08,0,.09.09,0,0,0,0-.11h0Zm-.46-.19a.1.1,0,0,0-.08,0,.1.1,0,0,0,0,.11h0A.09.09,0,0,0,84,8.76a.08.08,0,0,0,0-.1h0Zm-.46-.18a.09.09,0,0,0-.08.06.09.09,0,0,0,.05.11h0a.09.09,0,0,0,.07-.06.08.08,0,0,0,0-.11h0Zm-.48-.15s-.06,0-.08.06a.1.1,0,0,0,.06.11h0A.08.08,0,0,0,83,8.43a.07.07,0,0,0-.05-.1h0Zm-.47-.14a.08.08,0,0,0-.08.07.07.07,0,0,0,.06.1h0a.08.08,0,0,0,.08-.06.09.09,0,0,0-.06-.1h0ZM82,8.06a.1.1,0,0,0-.09.06.1.1,0,0,0,.07.11h0a.1.1,0,0,0,.09-.06.08.08,0,0,0-.06-.1h0ZM81.48,8A.08.08,0,0,0,81.4,8a.08.08,0,0,0,.06.1h0a.08.08,0,0,0,.08-.07.09.09,0,0,0-.06-.1h0ZM81,7.84a.09.09,0,0,0-.08.07A.08.08,0,0,0,81,8h0s.08,0,.08-.06a.08.08,0,0,0-.06-.1h0Zm-.48-.09a.1.1,0,0,0-.09.07.07.07,0,0,0,.07.09h0a.1.1,0,0,0,.09-.07.09.09,0,0,0-.07-.1h0ZM80,7.66a.09.09,0,0,0-.09.07.09.09,0,0,0,.07.1h0a.1.1,0,0,0,.09-.07.11.11,0,0,0-.07-.1h0Zm-.5-.08a.08.08,0,0,0-.08.07.08.08,0,0,0,.07.1h0a.08.08,0,0,0,.08-.07.08.08,0,0,0-.06-.1h0ZM79,7.51a.08.08,0,0,0-.08.07.07.07,0,0,0,.07.09h0a.08.08,0,0,0,.08-.08.08.08,0,0,0-.07-.09h0Zm-.49-.07a.09.09,0,0,0-.09.07.1.1,0,0,0,.08.1h0a.09.09,0,0,0,.09-.07.1.1,0,0,0-.07-.1ZM78,7.38a.08.08,0,0,0-.08.07.09.09,0,0,0,.07.1h0a.08.08,0,0,0,.08-.08.08.08,0,0,0-.07-.09h0Zm-.49-.06a.1.1,0,0,0-.09.08.09.09,0,0,0,.08.09h0a.09.09,0,0,0,.09-.07.1.1,0,0,0-.07-.1Zm-.5-.05a.08.08,0,0,0-.08.08.08.08,0,0,0,.07.09h0a.08.08,0,0,0,.08-.07.09.09,0,0,0-.07-.1h0Zm-.5,0a.08.08,0,0,0-.08.07.08.08,0,0,0,.08.09h0a.11.11,0,0,0,.09-.08.08.08,0,0,0-.08-.09h0Zm-.49,0a.09.09,0,0,0-.09.07.08.08,0,0,0,.08.09h0a.08.08,0,0,0,.09-.07.08.08,0,0,0-.08-.09Zm-.5,0a.08.08,0,0,0-.08.08s0,.08.07.09h0a.09.09,0,0,0,.08-.08.08.08,0,0,0-.08-.09Zm-.5,0A.08.08,0,0,0,75,7.2a.09.09,0,0,0,.08.09h0a.09.09,0,0,0,.08-.08.07.07,0,0,0-.07-.09Zm-.5,0a.08.08,0,0,0-.08.08.08.08,0,0,0,.08.09h0a.1.1,0,0,0,.09-.08.09.09,0,0,0-.08-.09h0Zm-.49,0a.08.08,0,0,0-.09.08.09.09,0,0,0,.08.08h0a.08.08,0,0,0,.09-.08.09.09,0,0,0-.08-.08Zm-.5,0a.08.08,0,0,0-.09.08.09.09,0,0,0,.08.08h0a.08.08,0,0,0,.09-.08.09.09,0,0,0-.08-.08Zm-.5,0a.1.1,0,0,0-.09.08.09.09,0,0,0,.09.09h0a.09.09,0,0,0,.08-.08A.08.08,0,0,0,73.08,7Zm-.5,0a.08.08,0,0,0-.08.08.08.08,0,0,0,.08.09h0a.09.09,0,0,0,.08-.08A.08.08,0,0,0,72.58,7Zm-.5,0A.09.09,0,0,0,72,7.1a.08.08,0,0,0,.08.08h0a.09.09,0,0,0,.08-.08A.08.08,0,0,0,72.08,7Zm-.5,0a.09.09,0,0,0-.08.08.09.09,0,0,0,.08.09h0a.08.08,0,0,0,.08-.09A.08.08,0,0,0,71.58,7Z"
        transform="translate(-10.49 -6.21)" />
    <path class="cls-2"
        d="M63.21,10.35h.07c.25,0,.46,0,.46-.11V10c0-.07-.21-.12-.46-.12h-.07c-.25,0-.46.05-.46.12v.27C62.75,10.3,63,10.35,63.21,10.35Z"
        transform="translate(-10.49 -6.21)" />
    <path class="cls-2"
        d="M63.18,10.43v.13h-.43s-.09,0-.09,0,0,0,.09,0h1c.05,0,.09,0,.09,0s0,0-.09,0h-.43v-.13c.39,0,.71-.1.71-.2s0,0-.09,0-.09,0-.09,0-.28.16-.6.16h-.1c-.32,0-.59-.08-.59-.16s0,0-.09,0-.09,0-.09,0S62.76,10.43,63.18,10.43Z"
        transform="translate(-10.49 -6.21)" />
    <path class="cls-2"
        d="M86.66,18.33v68.1c0,.76-1.36,2.16-4.35,3.44a29.31,29.31,0,0,1-21.89,0c-3-1.28-4.34-2.68-4.34-3.44V18.33c2.32,1.92,9,3,15.29,3s13-1,15.29-3m.43-1.53c0,2.24-7,4.05-15.72,4.05S55.65,19,55.65,16.8V86.43h0c0,2.23,7,6,15.72,6s15.72-3.76,15.72-6h0V16.8Z"
        transform="translate(-10.49 -6.21)" />
    <path class="cls-2"
        d="M86.66,11.61v4.05c0,.64-1.13,1.63-4.29,2.44a46.46,46.46,0,0,1-11,1.17,46.48,46.48,0,0,1-11-1.17c-3.16-.81-4.28-1.8-4.28-2.44V11.61c2.32,1.93,9,3,15.29,3s13-1,15.29-3m.43-1.52c0,2.23-7,4-15.72,4s-15.72-1.81-15.72-4v5.57c0,2.23,7,4,15.72,4s15.72-1.81,15.72-4h0V10.09Z"
        transform="translate(-10.49 -6.21)" />
    <g class="cls-3">
        <path class="cls-2"
            d="M71.32,83.13a.52.52,0,0,1-.52-.53h0a.52.52,0,0,1,.52-.52h0a.52.52,0,0,1,.53.52h0a.53.53,0,0,1-.53.53Zm1.32-.55a.51.51,0,0,1,.49-.55h0a.51.51,0,0,1,.55.49h0a.53.53,0,0,1-.49.56h0A.52.52,0,0,1,72.64,82.58Zm-3.19.49a.53.53,0,0,1-.49-.56h0a.52.52,0,0,1,.55-.49h0a.54.54,0,0,1,.5.56h0a.53.53,0,0,1-.53.49h0Zm5-.62a.54.54,0,0,1,.47-.58h0a.54.54,0,0,1,.58.46h0a.54.54,0,0,1-.47.59H75A.53.53,0,0,1,74.47,82.45Zm-6.88.46a.53.53,0,0,1-.46-.59h0a.52.52,0,0,1,.58-.46h0a.54.54,0,0,1,.46.59h0a.53.53,0,0,1-.52.46h-.06Zm8.71-.69a.53.53,0,0,1,.43-.61h0a.53.53,0,0,1,.6.43h0a.52.52,0,0,1-.42.61h-.09A.53.53,0,0,1,76.3,82.22Zm-10.56.41a.52.52,0,0,1-.43-.61h0a.52.52,0,0,1,.61-.42h0a.52.52,0,0,1,.42.61h0a.52.52,0,0,1-.51.43h-.09Zm12.37-.75a.52.52,0,0,1,.39-.63h0a.53.53,0,0,1,.63.39h0a.52.52,0,0,1-.39.63h0l-.12,0h0A.52.52,0,0,1,78.11,81.88Zm-14.21.37a.53.53,0,0,1-.39-.63h0a.53.53,0,0,1,.64-.39h0a.54.54,0,0,1,.39.64h0a.53.53,0,0,1-.51.4h0Zm16-.81a.53.53,0,0,1,.35-.66h0a.53.53,0,0,1,.65.35h0a.53.53,0,0,1-.35.66h0l-.15,0h0A.52.52,0,0,1,79.9,81.44Zm-17.81.32a.52.52,0,0,1-.34-.65h0a.51.51,0,0,1,.65-.35h0a.52.52,0,0,1,.35.65h0a.52.52,0,0,1-.5.37h0A.47.47,0,0,1,62.09,81.76Zm19.56-.88a.53.53,0,0,1,.3-.68h0a.53.53,0,0,1,.68.3h0a.53.53,0,0,1-.3.68h0a.65.65,0,0,1-.19,0h0A.53.53,0,0,1,81.65,80.88Zm-21.33.27h0a.52.52,0,0,1-.3-.68h0a.53.53,0,0,1,.68-.3h0a.53.53,0,0,1,.3.68h0a.52.52,0,0,1-.49.33h0A.58.58,0,0,1,60.32,81.15Zm23-1a.52.52,0,0,1,.25-.7h0a.53.53,0,0,1,.7.25h0a.53.53,0,0,1-.25.7h0a.59.59,0,0,1-.23,0h0A.52.52,0,0,1,83.36,80.19Zm-24.77.21a.52.52,0,0,1-.24-.7h0a.52.52,0,0,1,.7-.24h0a.52.52,0,0,1,.24.7h0a.53.53,0,0,1-.47.29h0A.46.46,0,0,1,58.59,80.4Zm26.41-1a.53.53,0,0,1,.16-.72h0a.52.52,0,0,1,.73.16h0a.53.53,0,0,1-.16.72h0a.5.5,0,0,1-.28.08h0A.52.52,0,0,1,85,79.36Zm-28.07.11a.51.51,0,0,1-.16-.72h0a.51.51,0,0,1,.72-.16h0a.51.51,0,0,1,.16.72h0a.52.52,0,0,1-.44.25h0A.47.47,0,0,1,56.93,79.47Zm29.6-1.14a.53.53,0,0,1,0-.75h0a.53.53,0,0,1,.74,0h0a.53.53,0,0,1,0,.75h0a.51.51,0,0,1-.37.15h0A.54.54,0,0,1,86.53,78.33Zm-31.14-.06a.53.53,0,0,1,0-.74h0a.53.53,0,0,1,.75,0h0a.52.52,0,0,1,0,.74h0a.51.51,0,0,1-.37.15h0A.53.53,0,0,1,55.39,78.27Zm32.39-1.33a.53.53,0,0,1-.48-.57h0a.53.53,0,0,1,.56-.48h0a.53.53,0,0,1,.49.56h0a.53.53,0,0,1-.53.49h0Zm-33.4-.61a.52.52,0,0,1,.52-.53h0a.53.53,0,0,1,.53.53h0a.52.52,0,0,1-.53.52h0A.52.52,0,0,1,54.38,76.33Z"
            transform="translate(-10.49 -6.21)" />
        <path class="cls-2"
            d="M71.32,80.36a.51.51,0,0,1-.52-.53h0a.52.52,0,0,1,.52-.52h0a.53.53,0,0,1,.53.53h0a.52.52,0,0,1-.53.52Zm1.32-.55a.52.52,0,0,1,.49-.55h0a.52.52,0,0,1,.55.5h0a.52.52,0,0,1-.49.55h0A.52.52,0,0,1,72.64,79.81Zm-3.19.49a.51.51,0,0,1-.49-.55h0a.51.51,0,0,1,.55-.49h0a.53.53,0,0,1,.5.55h0a.53.53,0,0,1-.53.49h0Zm5-.61a.53.53,0,0,1,.47-.58h0a.52.52,0,0,1,.58.46h0a.53.53,0,0,1-.47.58H75A.52.52,0,0,1,74.47,79.69Zm-6.88.45h0a.52.52,0,0,1-.46-.58h0a.51.51,0,0,1,.58-.46h0a.52.52,0,0,1,.46.58h0a.52.52,0,0,1-.52.46h-.06Zm8.71-.68a.52.52,0,0,1,.43-.61h0a.52.52,0,0,1,.6.43h0a.52.52,0,0,1-.42.6h-.09A.53.53,0,0,1,76.3,79.46Zm-10.56.41a.52.52,0,0,1-.43-.61h0a.52.52,0,0,1,.61-.43h0a.53.53,0,0,1,.42.61h0a.52.52,0,0,1-.51.44h-.09Zm12.37-.75a.52.52,0,0,1,.39-.63h0a.52.52,0,0,1,.63.39h0a.52.52,0,0,1-.39.63h-.12A.52.52,0,0,1,78.11,79.12Zm-14.21.37a.54.54,0,0,1-.39-.64h0a.52.52,0,0,1,.64-.38h0a.53.53,0,0,1,.39.63h0a.53.53,0,0,1-.52.4H63.9Zm16-.82a.51.51,0,0,1,.35-.65h0a.51.51,0,0,1,.65.35h0a.52.52,0,0,1-.35.65h0a.39.39,0,0,1-.15,0h0A.5.5,0,0,1,79.9,78.67ZM62.09,79h0a.53.53,0,0,1-.34-.66h0A.52.52,0,0,1,62.4,78h0a.53.53,0,0,1,.35.66h0a.53.53,0,0,1-.5.37h0Zm19.56-.89a.52.52,0,0,1,.3-.67h0a.52.52,0,0,1,.68.3h0a.53.53,0,0,1-.3.68h0a.63.63,0,0,1-.19,0h0A.53.53,0,0,1,81.65,78.11Zm-21.33.27h0a.52.52,0,0,1-.3-.68h0a.53.53,0,0,1,.68-.3h0a.53.53,0,0,1,.3.68h0a.53.53,0,0,1-.49.34h0A.41.41,0,0,1,60.32,78.38Zm23-.95a.52.52,0,0,1,.24-.7h0a.52.52,0,0,1,.7.24h0a.53.53,0,0,1-.25.7h0a.46.46,0,0,1-.23,0h0A.51.51,0,0,1,83.36,77.43Zm-24.77.2a.52.52,0,0,1-.24-.7h0a.52.52,0,0,1,.7-.24h0a.52.52,0,0,1,.24.7h0a.52.52,0,0,1-.47.3h0A.46.46,0,0,1,58.59,77.63Zm26.41-1a.53.53,0,0,1,.16-.72h0a.53.53,0,0,1,.73.16h0a.54.54,0,0,1-.16.73h0a.6.6,0,0,1-.28.08h0A.53.53,0,0,1,85,76.59Zm-28.07.12a.52.52,0,0,1-.16-.73h0a.53.53,0,0,1,.72-.16h0a.52.52,0,0,1,.16.73h0a.51.51,0,0,1-.44.24h0A.54.54,0,0,1,56.93,76.71Zm29.6-1.15a.51.51,0,0,1,0-.74h0a.52.52,0,0,1,.74,0h0a.52.52,0,0,1,0,.74h0a.51.51,0,0,1-.37.15h0A.5.5,0,0,1,86.53,75.56ZM55.39,75.5h0a.53.53,0,0,1,0-.74h0a.54.54,0,0,1,.75,0h0a.52.52,0,0,1,0,.74h0a.49.49,0,0,1-.37.16h0A.52.52,0,0,1,55.39,75.5Zm32.39-1.33a.52.52,0,0,1-.48-.56h0a.51.51,0,0,1,.56-.48h0a.53.53,0,0,1,.49.56h0a.53.53,0,0,1-.53.48h0Zm-33.4-.61A.52.52,0,0,1,54.9,73h0a.52.52,0,0,1,.53.52h0a.53.53,0,0,1-.53.53h0A.52.52,0,0,1,54.38,73.56Z"
            transform="translate(-10.49 -6.21)" />
        <path class="cls-2"
            d="M71.32,77.68a.52.52,0,0,1-.52-.53h0a.52.52,0,0,1,.52-.52h0a.53.53,0,0,1,.53.53h0a.52.52,0,0,1-.53.52Zm1.32-.55a.52.52,0,0,1,.49-.55h0a.51.51,0,0,1,.55.49h0a.53.53,0,0,1-.49.56h0A.52.52,0,0,1,72.64,77.13Zm-3.19.49h0a.51.51,0,0,1-.49-.55h0a.52.52,0,0,1,.55-.49h0a.53.53,0,0,1,.5.55h0a.53.53,0,0,1-.53.49h0Zm5-.61a.54.54,0,0,1,.47-.59h0a.54.54,0,0,1,.58.47h0a.53.53,0,0,1-.47.58H75A.53.53,0,0,1,74.47,77Zm-6.88.45h0a.52.52,0,0,1-.46-.58h0a.53.53,0,0,1,.58-.47h0a.54.54,0,0,1,.46.59h0a.52.52,0,0,1-.52.46h-.06Zm8.71-.69a.52.52,0,0,1,.43-.6h0a.52.52,0,0,1,.6.43h0a.52.52,0,0,1-.42.6h-.09A.53.53,0,0,1,76.3,76.77Zm-10.56.42a.53.53,0,0,1-.43-.61h0a.52.52,0,0,1,.61-.43h0a.53.53,0,0,1,.42.61h0a.51.51,0,0,1-.51.43h-.09Zm12.37-.75a.52.52,0,0,1,.39-.63h0a.52.52,0,0,1,.63.39h0a.52.52,0,0,1-.39.63h-.12A.52.52,0,0,1,78.11,76.44Zm-14.21.37a.54.54,0,0,1-.39-.64h0a.52.52,0,0,1,.64-.38h0a.53.53,0,0,1,.39.63h0a.53.53,0,0,1-.51.4H63.9Zm16-.82a.51.51,0,0,1,.35-.65h0a.51.51,0,0,1,.65.35h0a.52.52,0,0,1-.35.65h0a.39.39,0,0,1-.15,0h0A.5.5,0,0,1,79.9,76Zm-17.81.32a.51.51,0,0,1-.34-.65h0a.52.52,0,0,1,.65-.35h0a.53.53,0,0,1,.35.66h0a.53.53,0,0,1-.5.37h0Zm19.56-.88a.53.53,0,0,1,.3-.68h0a.53.53,0,0,1,.68.31h0a.52.52,0,0,1-.3.67h0a.43.43,0,0,1-.19,0h0A.53.53,0,0,1,81.65,75.43Zm-21.33.27A.52.52,0,0,1,60,75h0a.53.53,0,0,1,.68-.3h0a.53.53,0,0,1,.3.68h0a.53.53,0,0,1-.49.34h0A.41.41,0,0,1,60.32,75.7Zm23-1a.51.51,0,0,1,.25-.7h0a.52.52,0,0,1,.7.24h0a.53.53,0,0,1-.25.7h0a.46.46,0,0,1-.23.05h0A.53.53,0,0,1,83.36,74.75ZM58.59,75a.52.52,0,0,1-.24-.7h0a.52.52,0,0,1,.7-.24h0a.52.52,0,0,1,.24.7h0a.52.52,0,0,1-.47.3h0A.46.46,0,0,1,58.59,75Zm26.41-1a.53.53,0,0,1,.16-.72h0a.53.53,0,0,1,.73.16h0a.54.54,0,0,1-.16.73h0a.6.6,0,0,1-.28.08h0A.53.53,0,0,1,85,73.91ZM56.93,74a.52.52,0,0,1-.16-.73h0a.53.53,0,0,1,.72-.16h0a.52.52,0,0,1,.16.73h0a.51.51,0,0,1-.44.24h0A.54.54,0,0,1,56.93,74Zm29.6-1.15a.51.51,0,0,1,0-.74h0a.51.51,0,0,1,.74,0h0a.52.52,0,0,1,0,.74h0a.51.51,0,0,1-.37.15h0A.5.5,0,0,1,86.53,72.88Zm-31.14-.06h0a.53.53,0,0,1,0-.74h0a.53.53,0,0,1,.75,0h0a.52.52,0,0,1,0,.74h0a.49.49,0,0,1-.37.16h0A.54.54,0,0,1,55.39,72.82Zm32.39-1.33a.52.52,0,0,1-.48-.56h0a.53.53,0,0,1,.56-.49h0a.54.54,0,0,1,.49.57h0a.53.53,0,0,1-.53.48h0Zm-33.4-.61a.52.52,0,0,1,.52-.52h0a.52.52,0,0,1,.53.52h0a.53.53,0,0,1-.53.53h0A.52.52,0,0,1,54.38,70.88Z"
            transform="translate(-10.49 -6.21)" />
        <path class="cls-2"
            d="M70.8,74.73a.52.52,0,0,1,.52-.53h0a.53.53,0,0,1,.53.53h0a.52.52,0,0,1-.53.52h0A.52.52,0,0,1,70.8,74.73Zm1.84,0a.53.53,0,0,1,.49-.56h0a.53.53,0,0,1,.55.5h0a.51.51,0,0,1-.49.55h0A.51.51,0,0,1,72.64,74.71Zm-3.19.49a.53.53,0,0,1-.49-.56h0a.52.52,0,0,1,.55-.49h0a.53.53,0,0,1,.5.55h0a.53.53,0,0,1-.53.5h0Zm5-.62a.53.53,0,0,1,.47-.58h0a.53.53,0,0,1,.58.46h0a.53.53,0,0,1-.47.58H75A.53.53,0,0,1,74.47,74.58ZM67.59,75h0a.51.51,0,0,1-.46-.58h0a.52.52,0,0,1,.58-.46h0a.52.52,0,0,1,.46.58h0a.53.53,0,0,1-.52.47h-.06Zm8.71-.68a.52.52,0,0,1,.43-.61h0a.52.52,0,0,1,.6.43h0a.53.53,0,0,1-.42.61h-.09A.52.52,0,0,1,76.3,74.35Zm-10.56.41a.52.52,0,0,1-.43-.61h0a.52.52,0,0,1,.61-.42h0a.52.52,0,0,1,.42.61h0a.52.52,0,0,1-.51.43h-.09ZM78.11,74a.52.52,0,0,1,.39-.63h0a.52.52,0,0,1,.63.39h0a.52.52,0,0,1-.39.63h0l-.12,0h0A.53.53,0,0,1,78.11,74Zm-14.21.37h0a.53.53,0,0,1-.39-.63h0a.53.53,0,0,1,.64-.39h0a.53.53,0,0,1,.39.63h0a.54.54,0,0,1-.51.41h0Zm16-.81a.52.52,0,0,1,.35-.66h0a.52.52,0,0,1,.65.35h0a.53.53,0,0,1-.35.66h0l-.15,0h0A.52.52,0,0,1,79.9,73.57Zm-17.81.32a.53.53,0,0,1-.34-.66h0a.52.52,0,0,1,.65-.34h0a.52.52,0,0,1,.35.65h0a.52.52,0,0,1-.5.37h0ZM81.65,73a.53.53,0,0,1,.3-.68h0a.52.52,0,0,1,.68.3h0a.53.53,0,0,1-.3.68h0a.63.63,0,0,1-.19,0h0A.52.52,0,0,1,81.65,73Zm-21.33.27a.52.52,0,0,1-.3-.68h0a.52.52,0,0,1,.68-.3h0A.53.53,0,0,1,61,73h0a.53.53,0,0,1-.49.33h0A.58.58,0,0,1,60.32,73.28Zm23-1a.52.52,0,0,1,.25-.7h0a.52.52,0,0,1,.7.25h0a.53.53,0,0,1-.25.7h0a.59.59,0,0,1-.23.05h0A.52.52,0,0,1,83.36,72.32Zm-24.77.21a.53.53,0,0,1-.24-.71h0a.53.53,0,0,1,.7-.24h0a.52.52,0,0,1,.24.7h0a.52.52,0,0,1-.47.3h0A.59.59,0,0,1,58.59,72.53Zm26.41-1a.54.54,0,0,1,.16-.73h0a.53.53,0,0,1,.73.17h0a.53.53,0,0,1-.16.72h0a.5.5,0,0,1-.28.08h0A.52.52,0,0,1,85,71.49Zm-28.07.11a.51.51,0,0,1-.16-.72h0a.51.51,0,0,1,.72-.16h0a.51.51,0,0,1,.16.72h0a.51.51,0,0,1-.44.24h0A.46.46,0,0,1,56.93,71.6Zm29.6-1.15a.51.51,0,0,1,0-.74h0a.52.52,0,0,1,.74,0h0a.52.52,0,0,1,0,.74h0a.51.51,0,0,1-.37.15h0A.5.5,0,0,1,86.53,70.45Zm-31.14,0h0a.54.54,0,0,1,0-.75h0a.53.53,0,0,1,.75,0h0a.52.52,0,0,1,0,.74h0a.51.51,0,0,1-.37.15h0A.53.53,0,0,1,55.39,70.4Zm32.39-1.33a.53.53,0,0,1-.48-.57h0a.52.52,0,0,1,.56-.48h0a.53.53,0,0,1,.49.56h0a.53.53,0,0,1-.53.49h0Zm-33.4-.61a.52.52,0,0,1,.52-.53h0a.53.53,0,0,1,.53.53h0a.52.52,0,0,1-.53.52h0A.52.52,0,0,1,54.38,68.46Z"
            transform="translate(-10.49 -6.21)" />
        <path class="cls-2"
            d="M71.32,72.91a.52.52,0,0,1-.52-.52h0a.52.52,0,0,1,.52-.53h0a.53.53,0,0,1,.53.53h0a.52.52,0,0,1-.53.52Zm1.32-.54a.53.53,0,0,1,.49-.56h0a.53.53,0,0,1,.55.5h0a.51.51,0,0,1-.49.55h0A.51.51,0,0,1,72.64,72.37Zm-3.19.49A.53.53,0,0,1,69,72.3h0a.52.52,0,0,1,.55-.49h0a.54.54,0,0,1,.5.55h0a.53.53,0,0,1-.53.5h0Zm5-.62a.53.53,0,0,1,.47-.58h0a.53.53,0,0,1,.58.46h0a.53.53,0,0,1-.47.58H75A.53.53,0,0,1,74.47,72.24Zm-6.88.45h0a.51.51,0,0,1-.46-.58h0a.52.52,0,0,1,.58-.46h0a.52.52,0,0,1,.46.58h0a.53.53,0,0,1-.52.47h-.06ZM76.3,72a.52.52,0,0,1,.43-.61h0a.52.52,0,0,1,.6.43h0a.52.52,0,0,1-.42.61h-.09A.53.53,0,0,1,76.3,72Zm-10.56.41a.52.52,0,0,1-.43-.61h0a.52.52,0,0,1,.61-.42h0a.52.52,0,0,1,.42.6h0a.52.52,0,0,1-.51.44h-.09Zm12.37-.75A.52.52,0,0,1,78.5,71h0a.52.52,0,0,1,.63.39h0a.52.52,0,0,1-.39.63h0l-.12,0h0A.53.53,0,0,1,78.11,71.67ZM63.9,72a.53.53,0,0,1-.39-.63h0a.53.53,0,0,1,.64-.39h0a.53.53,0,0,1,.39.63h0a.54.54,0,0,1-.51.41h0Zm16-.81a.52.52,0,0,1,.35-.66h0a.52.52,0,0,1,.65.35h0a.52.52,0,0,1-.35.65h0a.4.4,0,0,1-.15,0h0A.52.52,0,0,1,79.9,71.23Zm-17.81.32a.53.53,0,0,1-.34-.66h0a.53.53,0,0,1,.65-.35h0a.53.53,0,0,1,.35.66h0a.52.52,0,0,1-.5.37h0Zm19.56-.88A.52.52,0,0,1,82,70h0a.52.52,0,0,1,.68.3h0a.53.53,0,0,1-.3.68h0a.63.63,0,0,1-.19,0h0A.53.53,0,0,1,81.65,70.67Zm-21.33.27a.52.52,0,0,1-.3-.68h0a.52.52,0,0,1,.68-.3h0a.52.52,0,0,1,.3.68h0a.53.53,0,0,1-.49.33h0A.58.58,0,0,1,60.32,70.94Zm23-1a.52.52,0,0,1,.25-.7h0a.52.52,0,0,1,.7.24h0a.54.54,0,0,1-.25.71h0a.59.59,0,0,1-.23,0h0A.52.52,0,0,1,83.36,70Zm-24.77.21a.53.53,0,0,1-.24-.71h0a.52.52,0,0,1,.7-.24h0a.52.52,0,0,1,.24.7h0a.52.52,0,0,1-.47.3h0A.59.59,0,0,1,58.59,70.19Zm26.41-1a.54.54,0,0,1,.16-.73h0a.54.54,0,0,1,.73.16h0a.54.54,0,0,1-.16.73h0a.6.6,0,0,1-.28.08h0A.52.52,0,0,1,85,69.15Zm-28.07.11a.52.52,0,0,1-.16-.73h0a.52.52,0,0,1,.72-.15h0a.51.51,0,0,1,.16.72h0a.51.51,0,0,1-.44.24h0A.46.46,0,0,1,56.93,69.26Zm29.6-1.15a.51.51,0,0,1,0-.74h0a.52.52,0,0,1,.74,0h0a.52.52,0,0,1,0,.74h0a.51.51,0,0,1-.37.15h0A.5.5,0,0,1,86.53,68.11Zm-31.14,0h0a.54.54,0,0,1,0-.75h0a.54.54,0,0,1,.75,0h0a.53.53,0,0,1,0,.75h0a.51.51,0,0,1-.37.15h0A.53.53,0,0,1,55.39,68.06Zm32.39-1.33a.53.53,0,0,1-.48-.57h0a.52.52,0,0,1,.56-.48h0a.53.53,0,0,1,.49.56h0a.53.53,0,0,1-.53.49h0Zm-33.4-.62a.52.52,0,0,1,.52-.52h0a.53.53,0,0,1,.53.52h0a.53.53,0,0,1-.53.53h0A.52.52,0,0,1,54.38,66.11Z"
            transform="translate(-10.49 -6.21)" />
        <path class="cls-2"
            d="M71.32,70.4a.51.51,0,0,1-.52-.52h0a.52.52,0,0,1,.52-.53h0a.53.53,0,0,1,.53.53h0a.52.52,0,0,1-.53.52Zm1.32-.54a.53.53,0,0,1,.49-.56h0a.53.53,0,0,1,.55.5h0a.51.51,0,0,1-.49.55h0A.51.51,0,0,1,72.64,69.86Zm-3.19.49h0a.53.53,0,0,1-.49-.56h0a.51.51,0,0,1,.55-.49h0a.53.53,0,0,1,.5.55h0a.53.53,0,0,1-.53.5h0Zm5-.62a.53.53,0,0,1,.47-.58h0a.53.53,0,0,1,.58.46h0a.53.53,0,0,1-.47.58H75A.53.53,0,0,1,74.47,69.73Zm-6.88.45h0a.51.51,0,0,1-.46-.58h0a.51.51,0,0,1,.58-.46h0a.52.52,0,0,1,.46.58h0a.53.53,0,0,1-.52.47h-.06Zm8.71-.68a.52.52,0,0,1,.43-.61h0a.52.52,0,0,1,.6.43h0a.53.53,0,0,1-.42.61h-.09A.53.53,0,0,1,76.3,69.5Zm-10.56.41a.52.52,0,0,1-.43-.61h0a.52.52,0,0,1,.61-.42h0a.52.52,0,0,1,.42.6h0a.52.52,0,0,1-.51.44h-.09Zm12.37-.75a.52.52,0,0,1,.39-.63h0a.52.52,0,0,1,.63.39h0a.52.52,0,0,1-.39.63h-.12A.52.52,0,0,1,78.11,69.16Zm-14.21.37a.53.53,0,0,1-.39-.63h0a.52.52,0,0,1,.64-.39h0a.53.53,0,0,1,.39.63h0a.53.53,0,0,1-.51.4H63.9Zm16-.82a.51.51,0,0,1,.35-.65h0a.52.52,0,0,1,.65.35h0a.52.52,0,0,1-.35.65h0a.4.4,0,0,1-.15,0h0A.51.51,0,0,1,79.9,68.71ZM62.09,69h0a.53.53,0,0,1-.34-.66h0A.52.52,0,0,1,62.4,68h0a.53.53,0,0,1,.35.66h0a.52.52,0,0,1-.5.37h0Zm19.56-.89a.52.52,0,0,1,.3-.67h0a.52.52,0,0,1,.68.3h0a.53.53,0,0,1-.3.68h0a.63.63,0,0,1-.19,0h0A.53.53,0,0,1,81.65,68.15Zm-21.33.28h0a.52.52,0,0,1-.3-.68h0a.52.52,0,0,1,.68-.3h0a.52.52,0,0,1,.3.67h0a.53.53,0,0,1-.49.34h0A.58.58,0,0,1,60.32,68.43Zm23-1a.52.52,0,0,1,.24-.7h0a.52.52,0,0,1,.7.24h0a.54.54,0,0,1-.25.71h0a.59.59,0,0,1-.23,0h0A.52.52,0,0,1,83.36,67.47Zm-24.77.21a.53.53,0,0,1-.24-.71h0a.52.52,0,0,1,.7-.24h0a.52.52,0,0,1,.24.7h0a.52.52,0,0,1-.47.3h0A.59.59,0,0,1,58.59,67.68Zm26.41-1a.54.54,0,0,1,.16-.73h0a.54.54,0,0,1,.73.16h0a.54.54,0,0,1-.16.73h0a.6.6,0,0,1-.28.08h0A.54.54,0,0,1,85,66.64Zm-28.07.11a.52.52,0,0,1-.16-.73h0a.52.52,0,0,1,.72-.15h0a.51.51,0,0,1,.16.72h0a.51.51,0,0,1-.44.24h0A.46.46,0,0,1,56.93,66.75Zm29.6-1.15a.51.51,0,0,1,0-.74h0a.52.52,0,0,1,.74,0h0a.52.52,0,0,1,0,.74h0a.51.51,0,0,1-.37.15h0A.5.5,0,0,1,86.53,65.6Zm-31.14,0a.54.54,0,0,1,0-.75h0a.54.54,0,0,1,.75,0h0a.53.53,0,0,1,0,.75h0a.51.51,0,0,1-.37.15h0A.55.55,0,0,1,55.39,65.55Zm32.39-1.34a.52.52,0,0,1-.48-.56h0a.51.51,0,0,1,.56-.48h0a.53.53,0,0,1,.49.56h0a.53.53,0,0,1-.53.49h0Zm-33.4-.61a.52.52,0,0,1,.52-.52h0a.52.52,0,0,1,.53.52h0a.53.53,0,0,1-.53.53h0A.52.52,0,0,1,54.38,63.6Z"
            transform="translate(-10.49 -6.21)" />
        <path class="cls-2"
            d="M71.32,68.06a.51.51,0,0,1-.52-.52h0a.52.52,0,0,1,.52-.53h0a.53.53,0,0,1,.53.53h0a.52.52,0,0,1-.53.52Zm1.32-.54a.53.53,0,0,1,.49-.56h0a.53.53,0,0,1,.55.5h0a.52.52,0,0,1-.49.55h0A.51.51,0,0,1,72.64,67.52ZM69.45,68h0a.53.53,0,0,1-.49-.56h0a.51.51,0,0,1,.55-.49h0a.53.53,0,0,1,.5.55h0a.53.53,0,0,1-.53.5h0Zm5-.62a.53.53,0,0,1,.47-.58h0a.53.53,0,0,1,.58.46h0a.53.53,0,0,1-.47.58H75A.53.53,0,0,1,74.47,67.39Zm-6.88.45h0a.51.51,0,0,1-.46-.58h0a.51.51,0,0,1,.58-.46h0a.52.52,0,0,1,.46.58h0a.53.53,0,0,1-.52.47h-.06Zm8.71-.68a.52.52,0,0,1,.43-.61h0a.52.52,0,0,1,.6.43h0a.51.51,0,0,1-.42.6h-.09A.53.53,0,0,1,76.3,67.16Zm-10.56.41a.52.52,0,0,1-.43-.61h0a.51.51,0,0,1,.61-.42h0a.52.52,0,0,1,.42.6h0a.52.52,0,0,1-.51.44h-.09Zm12.37-.75a.52.52,0,0,1,.39-.63h0a.52.52,0,0,1,.63.39h0a.52.52,0,0,1-.39.63h0l-.12,0h0A.54.54,0,0,1,78.11,66.82Zm-14.21.37a.53.53,0,0,1-.39-.63h0a.53.53,0,0,1,.64-.39h0a.53.53,0,0,1,.39.63h0a.53.53,0,0,1-.51.4H63.9Zm16-.82a.51.51,0,0,1,.35-.65h0a.51.51,0,0,1,.65.35h0a.52.52,0,0,1-.35.65h0a.4.4,0,0,1-.15,0h0A.51.51,0,0,1,79.9,66.37Zm-17.81.33h0a.53.53,0,0,1-.34-.66h0a.52.52,0,0,1,.65-.35h0a.53.53,0,0,1,.35.66h0a.52.52,0,0,1-.5.37h0Zm19.56-.89a.52.52,0,0,1,.3-.67h0a.52.52,0,0,1,.68.3h0a.53.53,0,0,1-.3.68h0a.63.63,0,0,1-.19,0h0A.53.53,0,0,1,81.65,65.81Zm-21.33.27h0a.51.51,0,0,1-.3-.67h0a.51.51,0,0,1,.68-.3h0a.53.53,0,0,1,.3.68h0a.53.53,0,0,1-.49.34h0A.41.41,0,0,1,60.32,66.08Zm23-1a.52.52,0,0,1,.24-.7h0a.52.52,0,0,1,.7.24h0a.54.54,0,0,1-.25.71h0a.59.59,0,0,1-.23.05h0A.52.52,0,0,1,83.36,65.13Zm-24.77.21a.53.53,0,0,1-.24-.71h0a.52.52,0,0,1,.7-.24h0a.52.52,0,0,1,.24.7h0a.52.52,0,0,1-.47.3h0A.59.59,0,0,1,58.59,65.34ZM85,64.3a.54.54,0,0,1,.16-.73h0a.54.54,0,0,1,.73.16h0a.54.54,0,0,1-.16.73h0a.6.6,0,0,1-.28.08h0A.54.54,0,0,1,85,64.3Zm-28.07.11a.52.52,0,0,1-.16-.73h0a.52.52,0,0,1,.72-.15h0a.51.51,0,0,1,.16.72h0a.51.51,0,0,1-.44.24h0A.46.46,0,0,1,56.93,64.41Zm29.6-1.15a.51.51,0,0,1,0-.74h0a.52.52,0,0,1,.74,0h0a.52.52,0,0,1,0,.74h0a.51.51,0,0,1-.37.15h0A.5.5,0,0,1,86.53,63.26ZM55.39,63.2a.53.53,0,0,1,0-.74h0a.54.54,0,0,1,.75,0h0a.53.53,0,0,1,0,.75h0a.51.51,0,0,1-.37.15h0A.52.52,0,0,1,55.39,63.2Zm32.39-1.33a.52.52,0,0,1-.48-.56h0a.51.51,0,0,1,.56-.48h0a.53.53,0,0,1,.49.56h0a.53.53,0,0,1-.53.49h0Zm-33.4-.61a.52.52,0,0,1,.52-.52h0a.52.52,0,0,1,.53.52h0a.53.53,0,0,1-.53.53h0A.52.52,0,0,1,54.38,61.26Z"
            transform="translate(-10.49 -6.21)" />
        <path class="cls-2"
            d="M71.32,65.81a.52.52,0,0,1-.52-.53h0a.52.52,0,0,1,.52-.52h0a.52.52,0,0,1,.53.52h0a.53.53,0,0,1-.53.53Zm1.32-.55a.51.51,0,0,1,.49-.55h0a.51.51,0,0,1,.55.49h0a.53.53,0,0,1-.49.56h0A.52.52,0,0,1,72.64,65.26Zm-3.19.49h0a.53.53,0,0,1-.49-.56h0a.52.52,0,0,1,.55-.49h0a.54.54,0,0,1,.5.56h0a.53.53,0,0,1-.53.49h0Zm5-.62a.54.54,0,0,1,.47-.58h0a.54.54,0,0,1,.58.46h0a.54.54,0,0,1-.47.59H75A.53.53,0,0,1,74.47,65.13Zm-6.88.46h0a.53.53,0,0,1-.46-.59h0a.52.52,0,0,1,.58-.46h0a.54.54,0,0,1,.46.59h0a.53.53,0,0,1-.52.46h-.06Zm8.71-.69a.51.51,0,0,1,.43-.6h0a.51.51,0,0,1,.6.42h0a.52.52,0,0,1-.42.61h-.09A.53.53,0,0,1,76.3,64.9Zm-10.56.41a.52.52,0,0,1-.43-.61h0a.52.52,0,0,1,.61-.42h0a.52.52,0,0,1,.42.61h0a.52.52,0,0,1-.51.43h-.09Zm12.37-.75a.52.52,0,0,1,.39-.63h0a.53.53,0,0,1,.63.39h0a.53.53,0,0,1-.39.64h-.12A.52.52,0,0,1,78.11,64.56Zm-14.21.37a.53.53,0,0,1-.39-.63h0a.54.54,0,0,1,.64-.39h0a.54.54,0,0,1,.39.64h0A.53.53,0,0,1,64,65h0Zm16-.81a.53.53,0,0,1,.35-.66h0a.53.53,0,0,1,.65.35h0a.53.53,0,0,1-.35.66h0l-.15,0h0A.5.5,0,0,1,79.9,64.12Zm-17.81.32h0a.52.52,0,0,1-.34-.65h0a.51.51,0,0,1,.65-.35h0a.52.52,0,0,1,.35.65h0a.53.53,0,0,1-.5.38h0Zm19.56-.88a.53.53,0,0,1,.3-.68h0a.53.53,0,0,1,.68.3h0a.52.52,0,0,1-.3.68h0a.43.43,0,0,1-.19,0h0A.53.53,0,0,1,81.65,63.56Zm-21.33.27h0a.52.52,0,0,1-.3-.68h0a.52.52,0,0,1,.68-.3h0a.53.53,0,0,1,.3.68h0a.53.53,0,0,1-.49.34h0A.58.58,0,0,1,60.32,63.83Zm23-1a.52.52,0,0,1,.24-.7h0a.53.53,0,0,1,.7.25h0a.53.53,0,0,1-.25.7h0a.59.59,0,0,1-.23.05h0A.52.52,0,0,1,83.36,62.87Zm-24.77.21a.52.52,0,0,1-.24-.7h0a.52.52,0,0,1,.7-.24h0a.52.52,0,0,1,.24.7h0a.53.53,0,0,1-.47.29h0A.46.46,0,0,1,58.59,63.08ZM85,62a.53.53,0,0,1,.16-.72h0a.52.52,0,0,1,.73.16h0a.53.53,0,0,1-.16.72h0a.5.5,0,0,1-.28.08h0A.52.52,0,0,1,85,62Zm-28.07.11a.51.51,0,0,1-.16-.72h0a.51.51,0,0,1,.72-.16h0a.52.52,0,0,1,.16.73h0a.54.54,0,0,1-.44.24h0A.47.47,0,0,1,56.93,62.15ZM86.53,61a.53.53,0,0,1,0-.75h0a.53.53,0,0,1,.74,0h0a.53.53,0,0,1,0,.75h0a.51.51,0,0,1-.37.15h0A.54.54,0,0,1,86.53,61ZM55.39,61a.53.53,0,0,1,0-.74h0a.53.53,0,0,1,.75,0h0a.52.52,0,0,1,0,.74h0a.51.51,0,0,1-.37.15h0A.55.55,0,0,1,55.39,61Zm32.39-1.33a.52.52,0,0,1-.48-.56h0a.53.53,0,0,1,.56-.49h0a.53.53,0,0,1,.49.56h0a.53.53,0,0,1-.53.49h0ZM54.38,59a.52.52,0,0,1,.52-.53h0a.53.53,0,0,1,.53.53h0a.52.52,0,0,1-.53.52h0A.52.52,0,0,1,54.38,59Z"
            transform="translate(-10.49 -6.21)" />
        <path class="cls-2"
            d="M71.32,63.64a.52.52,0,0,1-.52-.53h0a.52.52,0,0,1,.52-.52h0a.52.52,0,0,1,.53.52h0a.53.53,0,0,1-.53.53Zm1.32-.55a.51.51,0,0,1,.49-.55h0a.51.51,0,0,1,.55.49h0a.53.53,0,0,1-.49.56h0A.52.52,0,0,1,72.64,63.09Zm-3.19.49A.52.52,0,0,1,69,63h0a.51.51,0,0,1,.55-.5h0a.54.54,0,0,1,.5.56h0a.53.53,0,0,1-.53.49h0Zm5-.62a.54.54,0,0,1,.47-.58h0a.54.54,0,0,1,.58.46h0a.54.54,0,0,1-.47.59H75A.53.53,0,0,1,74.47,63Zm-6.88.46h0a.53.53,0,0,1-.46-.59h0a.52.52,0,0,1,.58-.46h0a.54.54,0,0,1,.46.59h0a.53.53,0,0,1-.52.46h-.06Zm8.71-.69a.53.53,0,0,1,.43-.61h0a.53.53,0,0,1,.6.43h0a.52.52,0,0,1-.42.61h-.09A.53.53,0,0,1,76.3,62.73Zm-10.56.41a.52.52,0,0,1-.43-.6h0a.52.52,0,0,1,.61-.43h0a.52.52,0,0,1,.42.61h0a.52.52,0,0,1-.51.43h-.09Zm12.37-.75a.52.52,0,0,1,.39-.63h0a.53.53,0,0,1,.63.39h0a.53.53,0,0,1-.39.64h-.12A.52.52,0,0,1,78.11,62.39Zm-14.21.37h0a.53.53,0,0,1-.39-.63h0a.53.53,0,0,1,.64-.39h0a.54.54,0,0,1,.39.64h0a.53.53,0,0,1-.51.4h0Zm16-.81a.53.53,0,0,1,.35-.66h0a.53.53,0,0,1,.65.35h0a.53.53,0,0,1-.35.66h0l-.15,0h0A.52.52,0,0,1,79.9,62Zm-17.81.32h0a.52.52,0,0,1-.34-.65h0a.51.51,0,0,1,.65-.35h0a.52.52,0,0,1,.35.65h0a.53.53,0,0,1-.5.38h0Zm19.56-.88a.53.53,0,0,1,.3-.68h0a.53.53,0,0,1,.68.3h0a.53.53,0,0,1-.3.68h0a.65.65,0,0,1-.19,0h0A.53.53,0,0,1,81.65,61.39Zm-21.33.27h0A.52.52,0,0,1,60,61h0a.53.53,0,0,1,.68-.3h0a.53.53,0,0,1,.3.68h0a.52.52,0,0,1-.49.33h0A.58.58,0,0,1,60.32,61.66Zm23-1a.52.52,0,0,1,.24-.7h0a.53.53,0,0,1,.7.25h0a.53.53,0,0,1-.25.7h0a.59.59,0,0,1-.23,0h0A.52.52,0,0,1,83.36,60.7Zm-24.77.21a.52.52,0,0,1-.24-.7h0a.52.52,0,0,1,.7-.24h0a.52.52,0,0,1,.24.7h0a.53.53,0,0,1-.47.29h0A.46.46,0,0,1,58.59,60.91Zm26.41-1a.53.53,0,0,1,.16-.72h0a.52.52,0,0,1,.73.16h0a.53.53,0,0,1-.16.72h0a.5.5,0,0,1-.28.08h0A.52.52,0,0,1,85,59.87ZM56.93,60a.51.51,0,0,1-.16-.72h0a.51.51,0,0,1,.72-.16h0a.51.51,0,0,1,.16.72h0a.52.52,0,0,1-.44.25h0A.47.47,0,0,1,56.93,60Zm29.6-1.14a.53.53,0,0,1,0-.75h0a.53.53,0,0,1,.74,0h0a.53.53,0,0,1,0,.75h0a.51.51,0,0,1-.37.15h0A.54.54,0,0,1,86.53,58.84Zm-31.14-.06a.53.53,0,0,1,0-.74h0a.53.53,0,0,1,.75,0h0a.52.52,0,0,1,0,.74h0a.51.51,0,0,1-.37.15h0A.55.55,0,0,1,55.39,58.78Zm32.39-1.33a.53.53,0,0,1-.48-.57h0a.53.53,0,0,1,.56-.48h0a.53.53,0,0,1,.49.56h0a.53.53,0,0,1-.53.49h0Zm-33.4-.61a.52.52,0,0,1,.52-.53h0a.53.53,0,0,1,.53.53h0a.52.52,0,0,1-.53.52h0A.52.52,0,0,1,54.38,56.84Z"
            transform="translate(-10.49 -6.21)" />
        <path class="cls-2"
            d="M71.32,58.36a.52.52,0,0,1-.52-.53h0a.52.52,0,0,1,.52-.52h0a.53.53,0,0,1,.53.53h0a.52.52,0,0,1-.53.52Zm1.32-.55a.52.52,0,0,1,.49-.55h0a.52.52,0,0,1,.55.49h0a.53.53,0,0,1-.49.56h0A.52.52,0,0,1,72.64,57.81Zm-3.19.49h0a.51.51,0,0,1-.49-.55h0a.53.53,0,0,1,.55-.5h0a.53.53,0,0,1,.5.55h0a.53.53,0,0,1-.53.49h0Zm5-.61a.53.53,0,0,1,.47-.58h0a.52.52,0,0,1,.58.46h0a.53.53,0,0,1-.47.58H75A.52.52,0,0,1,74.47,57.69Zm-6.88.45a.52.52,0,0,1-.46-.58h0a.51.51,0,0,1,.58-.46h0a.52.52,0,0,1,.46.58h0a.52.52,0,0,1-.52.46h-.06Zm8.71-.68a.52.52,0,0,1,.43-.61h0a.52.52,0,0,1,.6.43h0a.52.52,0,0,1-.42.6h-.09A.53.53,0,0,1,76.3,57.46Zm-10.56.41a.53.53,0,0,1-.43-.61h0a.52.52,0,0,1,.61-.43h0a.53.53,0,0,1,.42.61h0a.51.51,0,0,1-.51.43h-.09Zm12.37-.75a.52.52,0,0,1,.39-.63h0a.52.52,0,0,1,.63.39h0a.52.52,0,0,1-.39.63h-.12A.52.52,0,0,1,78.11,57.12Zm-14.21.37a.54.54,0,0,1-.39-.64h0a.52.52,0,0,1,.64-.38h0a.53.53,0,0,1,.39.63h0a.53.53,0,0,1-.51.4H63.9Zm16-.82a.51.51,0,0,1,.35-.65h0a.51.51,0,0,1,.65.35h0a.52.52,0,0,1-.35.65h0a.39.39,0,0,1-.15,0h0A.5.5,0,0,1,79.9,56.67ZM62.09,57a.53.53,0,0,1-.34-.66h0A.52.52,0,0,1,62.4,56h0a.53.53,0,0,1,.35.66h0a.53.53,0,0,1-.5.37h0Zm19.56-.89a.53.53,0,0,1,.3-.68h0a.53.53,0,0,1,.68.31h0a.52.52,0,0,1-.3.67h0a.43.43,0,0,1-.19,0h0A.53.53,0,0,1,81.65,56.11Zm-21.33.27h0a.52.52,0,0,1-.3-.68h0a.53.53,0,0,1,.68-.3h0a.53.53,0,0,1,.3.68h0a.53.53,0,0,1-.49.34h0A.41.41,0,0,1,60.32,56.38Zm23-1a.51.51,0,0,1,.25-.7h0a.52.52,0,0,1,.7.24h0a.53.53,0,0,1-.25.7h0a.46.46,0,0,1-.23,0h0A.51.51,0,0,1,83.36,55.43Zm-24.77.2a.52.52,0,0,1-.24-.7h0a.52.52,0,0,1,.7-.24h0a.52.52,0,0,1,.24.7h0a.52.52,0,0,1-.47.3h0A.46.46,0,0,1,58.59,55.63Zm26.41-1a.53.53,0,0,1,.16-.72h0a.53.53,0,0,1,.73.16h0a.54.54,0,0,1-.16.73h0a.6.6,0,0,1-.28.08h0A.53.53,0,0,1,85,54.59Zm-28.07.12a.52.52,0,0,1-.16-.73h0a.53.53,0,0,1,.72-.16h0a.52.52,0,0,1,.16.73h0a.51.51,0,0,1-.44.24h0A.54.54,0,0,1,56.93,54.71Zm29.6-1.15a.51.51,0,0,1,0-.74h0a.52.52,0,0,1,.74,0h0a.52.52,0,0,1,0,.74h0a.51.51,0,0,1-.37.15h0A.5.5,0,0,1,86.53,53.56ZM55.39,53.5a.53.53,0,0,1,0-.74h0a.53.53,0,0,1,.75,0h0a.52.52,0,0,1,0,.74h0a.49.49,0,0,1-.37.16h0A.5.5,0,0,1,55.39,53.5Zm32.39-1.33a.52.52,0,0,1-.48-.56h0a.51.51,0,0,1,.56-.48h0a.53.53,0,0,1,.49.56h0a.53.53,0,0,1-.53.48h0Zm-33.4-.61A.52.52,0,0,1,54.9,51h0a.52.52,0,0,1,.53.52h0a.53.53,0,0,1-.53.53h0A.52.52,0,0,1,54.38,51.56Z"
            transform="translate(-10.49 -6.21)" />
        <path class="cls-2"
            d="M70.8,60.6a.52.52,0,0,1,.52-.52h0a.52.52,0,0,1,.53.52h0a.53.53,0,0,1-.53.53h0A.52.52,0,0,1,70.8,60.6Zm1.84,0a.51.51,0,0,1,.49-.55h0a.51.51,0,0,1,.55.49h0a.51.51,0,0,1-.49.55h0A.52.52,0,0,1,72.64,60.58Zm-3.19.49a.53.53,0,0,1-.49-.56h0a.51.51,0,0,1,.55-.49h0a.54.54,0,0,1,.5.56h0a.53.53,0,0,1-.53.49h0Zm5-.62a.53.53,0,0,1,.47-.58h0a.54.54,0,0,1,.58.46h0a.54.54,0,0,1-.47.59H75A.53.53,0,0,1,74.47,60.45Zm-6.88.46h0a.53.53,0,0,1-.46-.59h0a.52.52,0,0,1,.58-.46h0a.53.53,0,0,1,.46.58h0a.53.53,0,0,1-.52.47h-.06Zm8.71-.69a.53.53,0,0,1,.43-.61h0a.53.53,0,0,1,.6.43h0a.52.52,0,0,1-.42.61h-.09A.53.53,0,0,1,76.3,60.22Zm-10.56.41a.52.52,0,0,1-.43-.61h0a.52.52,0,0,1,.61-.42h0a.52.52,0,0,1,.42.61h0a.52.52,0,0,1-.51.43h-.09Zm12.37-.75a.52.52,0,0,1,.39-.63h0a.52.52,0,0,1,.63.39h0a.52.52,0,0,1-.39.63h0l-.12,0h0A.53.53,0,0,1,78.11,59.88Zm-14.21.37h0a.53.53,0,0,1-.39-.63h0a.53.53,0,0,1,.64-.39h0a.53.53,0,0,1,.39.63h0a.53.53,0,0,1-.51.41h0Zm16-.81a.53.53,0,0,1,.35-.66h0a.52.52,0,0,1,.65.35h0a.53.53,0,0,1-.35.66h0l-.15,0h0A.52.52,0,0,1,79.9,59.44Zm-17.81.32h0a.52.52,0,0,1-.34-.66h0a.52.52,0,0,1,.65-.34h0a.52.52,0,0,1,.35.65h0a.52.52,0,0,1-.5.37h0A.47.47,0,0,1,62.09,59.76Zm19.56-.88a.53.53,0,0,1,.3-.68h0a.53.53,0,0,1,.68.3h0a.53.53,0,0,1-.3.68h0a.65.65,0,0,1-.19,0h0A.53.53,0,0,1,81.65,58.88Zm-21.33.27h0a.52.52,0,0,1-.3-.68h0a.52.52,0,0,1,.68-.3h0a.53.53,0,0,1,.3.68h0a.52.52,0,0,1-.49.33h0A.58.58,0,0,1,60.32,59.15Zm23-1a.52.52,0,0,1,.24-.7h0a.53.53,0,0,1,.7.25h0a.53.53,0,0,1-.25.7h0a.59.59,0,0,1-.23.05h0A.52.52,0,0,1,83.36,58.19Zm-24.77.21a.52.52,0,0,1-.24-.7h0a.53.53,0,0,1,.7-.25h0a.53.53,0,0,1,.24.71h0a.53.53,0,0,1-.47.29h0A.46.46,0,0,1,58.59,58.4Zm26.41-1a.54.54,0,0,1,.16-.73h0a.53.53,0,0,1,.73.17h0a.53.53,0,0,1-.16.72h0a.5.5,0,0,1-.28.08h0A.52.52,0,0,1,85,57.36Zm-28.07.11a.51.51,0,0,1-.16-.72h0a.51.51,0,0,1,.72-.16h0a.51.51,0,0,1,.16.72h0a.52.52,0,0,1-.44.25h0A.47.47,0,0,1,56.93,57.47Zm29.6-1.14a.53.53,0,0,1,0-.75h0a.53.53,0,0,1,.74,0h0a.53.53,0,0,1,0,.75h0a.51.51,0,0,1-.37.15h0A.54.54,0,0,1,86.53,56.33Zm-31.14-.06a.53.53,0,0,1,0-.74h0a.53.53,0,0,1,.75,0h0a.52.52,0,0,1,0,.74h0a.51.51,0,0,1-.37.15h0A.55.55,0,0,1,55.39,56.27Zm32.39-1.33a.53.53,0,0,1-.48-.57h0a.53.53,0,0,1,.56-.48h0a.53.53,0,0,1,.49.56h0a.53.53,0,0,1-.53.49h0Zm-33.4-.61a.52.52,0,0,1,.52-.53h0a.53.53,0,0,1,.53.53h0a.52.52,0,0,1-.53.52h0A.52.52,0,0,1,54.38,54.33Z"
            transform="translate(-10.49 -6.21)" />
        <path class="cls-2"
            d="M71.32,56a.52.52,0,0,1-.52-.53h0a.52.52,0,0,1,.52-.52h0a.53.53,0,0,1,.53.53h0a.52.52,0,0,1-.53.52Zm1.32-.55a.52.52,0,0,1,.49-.55h0a.51.51,0,0,1,.55.49h0a.53.53,0,0,1-.49.56h0A.52.52,0,0,1,72.64,55.47ZM69.45,56a.51.51,0,0,1-.49-.55h0a.53.53,0,0,1,.55-.5h0a.54.54,0,0,1,.5.56h0a.53.53,0,0,1-.53.49h0Zm5-.61a.53.53,0,0,1,.47-.58h0a.54.54,0,0,1,.58.47h0a.53.53,0,0,1-.47.58H75A.53.53,0,0,1,74.47,55.35Zm-6.88.45a.52.52,0,0,1-.46-.58h0a.51.51,0,0,1,.58-.46h0a.54.54,0,0,1,.46.59h0a.52.52,0,0,1-.52.46h-.06Zm8.71-.69a.52.52,0,0,1,.43-.6h0a.52.52,0,0,1,.6.42h0a.52.52,0,0,1-.42.61h-.09A.53.53,0,0,1,76.3,55.11Zm-10.56.42a.53.53,0,0,1-.43-.61h0a.52.52,0,0,1,.61-.43h0a.52.52,0,0,1,.42.61h0a.52.52,0,0,1-.51.44h-.09Zm12.37-.75a.52.52,0,0,1,.39-.63h0a.52.52,0,0,1,.63.39h0a.52.52,0,0,1-.39.63h-.12A.52.52,0,0,1,78.11,54.78Zm-14.21.37h0a.54.54,0,0,1-.39-.64h0a.52.52,0,0,1,.64-.38h0a.53.53,0,0,1,.39.63h0a.53.53,0,0,1-.52.4H63.9Zm16-.82a.51.51,0,0,1,.35-.65h0a.51.51,0,0,1,.65.35h0a.52.52,0,0,1-.35.65h0a.39.39,0,0,1-.15,0h0A.5.5,0,0,1,79.9,54.33Zm-17.81.32a.51.51,0,0,1-.34-.65h0a.52.52,0,0,1,.65-.35h0a.53.53,0,0,1,.35.66h0a.53.53,0,0,1-.5.37h0Zm19.56-.88a.53.53,0,0,1,.3-.68h0a.53.53,0,0,1,.68.31h0a.53.53,0,0,1-.3.68h0a.63.63,0,0,1-.19,0h0A.53.53,0,0,1,81.65,53.77ZM60.32,54h0a.52.52,0,0,1-.3-.68h0a.53.53,0,0,1,.68-.3h0a.53.53,0,0,1,.3.68h0a.53.53,0,0,1-.49.34h0A.41.41,0,0,1,60.32,54Zm23-.95a.51.51,0,0,1,.25-.7h0a.52.52,0,0,1,.7.24h0a.53.53,0,0,1-.25.7h0a.46.46,0,0,1-.23.05h0A.53.53,0,0,1,83.36,53.09Zm-24.77.2a.52.52,0,0,1-.24-.7h0a.52.52,0,0,1,.7-.24h0a.52.52,0,0,1,.24.7h0a.51.51,0,0,1-.47.29h0A.46.46,0,0,1,58.59,53.29Zm26.41-1a.53.53,0,0,1,.16-.72h0a.53.53,0,0,1,.73.16h0a.54.54,0,0,1-.16.73h0a.6.6,0,0,1-.28.08h0A.53.53,0,0,1,85,52.25Zm-28.07.12a.52.52,0,0,1-.16-.73h0a.53.53,0,0,1,.72-.16h0a.52.52,0,0,1,.16.73h0a.54.54,0,0,1-.44.24h0A.54.54,0,0,1,56.93,52.37Zm29.6-1.15a.51.51,0,0,1,0-.74h0a.52.52,0,0,1,.74,0h0a.52.52,0,0,1,0,.74h0a.51.51,0,0,1-.37.15h0A.5.5,0,0,1,86.53,51.22Zm-31.14-.06a.53.53,0,0,1,0-.74h0a.54.54,0,0,1,.75,0h0a.52.52,0,0,1,0,.74h0a.49.49,0,0,1-.37.16h0A.5.5,0,0,1,55.39,51.16Zm32.39-1.33a.52.52,0,0,1-.48-.56h0a.53.53,0,0,1,.56-.49h0a.54.54,0,0,1,.49.57h0a.53.53,0,0,1-.53.48h0Zm-33.4-.61a.52.52,0,0,1,.52-.52h0a.52.52,0,0,1,.53.52h0a.53.53,0,0,1-.53.53h0A.52.52,0,0,1,54.38,49.22Z"
            transform="translate(-10.49 -6.21)" />
        <path class="cls-2"
            d="M70.8,53.15a.52.52,0,0,1,.52-.52h0a.53.53,0,0,1,.53.53h0a.53.53,0,0,1-.53.52h0A.52.52,0,0,1,70.8,53.15Zm1.84,0a.52.52,0,0,1,.49-.55h0a.51.51,0,0,1,.55.49h0a.53.53,0,0,1-.49.56h0A.52.52,0,0,1,72.64,53.13Zm-3.19.49a.51.51,0,0,1-.49-.55h0a.53.53,0,0,1,.55-.5h0a.54.54,0,0,1,.5.56h0a.53.53,0,0,1-.53.49h0Zm5-.61a.54.54,0,0,1,.47-.59h0a.54.54,0,0,1,.58.47h0a.53.53,0,0,1-.47.58H75A.53.53,0,0,1,74.47,53Zm-6.88.45h0a.53.53,0,0,1-.46-.59h0a.53.53,0,0,1,.58-.46h0a.54.54,0,0,1,.46.59h0a.53.53,0,0,1-.52.46h-.06Zm8.71-.69a.52.52,0,0,1,.43-.6h0a.52.52,0,0,1,.6.42h0a.52.52,0,0,1-.42.61h-.09A.53.53,0,0,1,76.3,52.77Zm-10.56.42a.53.53,0,0,1-.43-.61h0a.52.52,0,0,1,.61-.43h0a.52.52,0,0,1,.42.61h0a.52.52,0,0,1-.51.43h-.09Zm12.37-.75a.53.53,0,0,1,.39-.64h0a.53.53,0,0,1,.63.4h0a.52.52,0,0,1-.39.63h-.12A.52.52,0,0,1,78.11,52.44Zm-14.21.37h0a.54.54,0,0,1-.39-.64h0a.54.54,0,0,1,.64-.39h0a.54.54,0,0,1,.39.64h0a.53.53,0,0,1-.51.4H63.9Zm16-.82a.51.51,0,0,1,.35-.65h0a.51.51,0,0,1,.65.35h0a.52.52,0,0,1-.35.65h0a.39.39,0,0,1-.15,0h0A.5.5,0,0,1,79.9,52Zm-17.81.32a.52.52,0,0,1-.34-.65h0a.52.52,0,0,1,.65-.35h0a.53.53,0,0,1,.35.66h0a.53.53,0,0,1-.5.37h0Zm19.56-.88a.53.53,0,0,1,.3-.68h0a.53.53,0,0,1,.68.31h0a.52.52,0,0,1-.3.67h0a.43.43,0,0,1-.19,0h0A.53.53,0,0,1,81.65,51.43Zm-21.33.27A.52.52,0,0,1,60,51h0a.53.53,0,0,1,.68-.3h0a.53.53,0,0,1,.3.68h0a.53.53,0,0,1-.49.34h0A.41.41,0,0,1,60.32,51.7Zm23-1a.53.53,0,0,1,.25-.71h0a.53.53,0,0,1,.7.25h0a.53.53,0,0,1-.25.7h0a.46.46,0,0,1-.23,0h0A.53.53,0,0,1,83.36,50.75ZM58.59,51a.52.52,0,0,1-.24-.7h0a.52.52,0,0,1,.7-.24h0a.52.52,0,0,1,.24.7h0a.51.51,0,0,1-.47.29h0A.46.46,0,0,1,58.59,51Zm26.41-1a.53.53,0,0,1,.16-.72h0a.52.52,0,0,1,.73.16h0a.53.53,0,0,1-.16.72h0a.51.51,0,0,1-.28.09h0A.53.53,0,0,1,85,49.91ZM56.93,50a.52.52,0,0,1-.16-.73h0a.52.52,0,0,1,.72-.16h0a.52.52,0,0,1,.16.73h0a.54.54,0,0,1-.44.24h0A.54.54,0,0,1,56.93,50Zm29.6-1.15a.51.51,0,0,1,0-.74h0a.51.51,0,0,1,.74,0h0a.52.52,0,0,1,0,.74h0a.51.51,0,0,1-.37.15h0A.54.54,0,0,1,86.53,48.88Zm-31.14-.06h0a.53.53,0,0,1,0-.74h0a.53.53,0,0,1,.75,0h0a.52.52,0,0,1,0,.74h0a.52.52,0,0,1-.37.16h0A.54.54,0,0,1,55.39,48.82Zm32.39-1.33a.52.52,0,0,1-.48-.56h0a.53.53,0,0,1,.56-.49h0a.54.54,0,0,1,.49.57h0a.53.53,0,0,1-.53.48h0Zm-33.4-.61a.52.52,0,0,1,.52-.52h0a.52.52,0,0,1,.53.52h0a.53.53,0,0,1-.53.53h0A.52.52,0,0,1,54.38,46.88Z"
            transform="translate(-10.49 -6.21)" />
        <path class="cls-2"
            d="M71.32,51.34a.52.52,0,0,1-.52-.53h0a.52.52,0,0,1,.52-.52h0a.52.52,0,0,1,.53.52h0a.53.53,0,0,1-.53.53Zm1.32-.55a.52.52,0,0,1,.49-.55h0a.51.51,0,0,1,.55.49h0a.53.53,0,0,1-.49.56h0A.52.52,0,0,1,72.64,50.79Zm-3.19.49h0a.52.52,0,0,1-.49-.55h0a.53.53,0,0,1,.55-.5h0a.54.54,0,0,1,.5.56h0a.53.53,0,0,1-.53.49h0Zm5-.61a.54.54,0,0,1,.47-.59h0a.54.54,0,0,1,.58.47h0a.54.54,0,0,1-.47.58H75A.53.53,0,0,1,74.47,50.67Zm-6.88.45h0a.53.53,0,0,1-.46-.59h0a.53.53,0,0,1,.58-.46h0a.54.54,0,0,1,.46.59h0a.53.53,0,0,1-.52.46h-.06Zm8.71-.69a.52.52,0,0,1,.43-.6h0a.52.52,0,0,1,.6.42h0a.52.52,0,0,1-.42.61h-.09A.53.53,0,0,1,76.3,50.43Zm-10.56.42a.53.53,0,0,1-.43-.61h0a.52.52,0,0,1,.61-.43h0a.52.52,0,0,1,.42.61h0a.52.52,0,0,1-.51.43h-.09Zm12.37-.75a.53.53,0,0,1,.39-.64h0a.53.53,0,0,1,.63.39h0a.53.53,0,0,1-.39.64h-.12A.52.52,0,0,1,78.11,50.1Zm-14.21.37a.54.54,0,0,1-.39-.64h0a.54.54,0,0,1,.64-.39h0a.54.54,0,0,1,.39.64h0a.53.53,0,0,1-.51.4H63.9Zm16-.82a.53.53,0,0,1,.35-.66h0a.53.53,0,0,1,.65.36h0a.52.52,0,0,1-.35.65h0l-.15,0h0A.5.5,0,0,1,79.9,49.65ZM62.09,50a.52.52,0,0,1-.34-.65h0A.51.51,0,0,1,62.4,49h0a.53.53,0,0,1,.35.66h0a.53.53,0,0,1-.5.37h0Zm19.56-.88a.53.53,0,0,1,.3-.68h0a.53.53,0,0,1,.68.31h0a.52.52,0,0,1-.3.67h0a.43.43,0,0,1-.19,0h0A.53.53,0,0,1,81.65,49.09Zm-21.33.27a.52.52,0,0,1-.3-.68h0a.53.53,0,0,1,.68-.3h0a.53.53,0,0,1,.3.68h0a.53.53,0,0,1-.49.34h0A.41.41,0,0,1,60.32,49.36Zm23-1a.51.51,0,0,1,.25-.7h0a.52.52,0,0,1,.7.24h0a.53.53,0,0,1-.25.7h0a.46.46,0,0,1-.23.05h0A.53.53,0,0,1,83.36,48.41Zm-24.77.2a.52.52,0,0,1-.24-.7h0a.52.52,0,0,1,.7-.24h0a.52.52,0,0,1,.24.7h0a.51.51,0,0,1-.47.29h0A.46.46,0,0,1,58.59,48.61Zm26.41-1a.53.53,0,0,1,.16-.72h0a.53.53,0,0,1,.73.16h0a.54.54,0,0,1-.16.73h0a.6.6,0,0,1-.28.08h0A.53.53,0,0,1,85,47.57Zm-28.07.12a.52.52,0,0,1-.16-.73h0a.52.52,0,0,1,.72-.16h0a.52.52,0,0,1,.16.73h0a.54.54,0,0,1-.44.24h0A.54.54,0,0,1,56.93,47.69Zm29.6-1.15a.51.51,0,0,1,0-.74h0a.51.51,0,0,1,.74,0h0a.52.52,0,0,1,0,.74h0a.51.51,0,0,1-.37.15h0A.54.54,0,0,1,86.53,46.54Zm-31.14-.06a.53.53,0,0,1,0-.74h0a.53.53,0,0,1,.75,0h0a.52.52,0,0,1,0,.74h0a.51.51,0,0,1-.37.15h0A.53.53,0,0,1,55.39,46.48Zm32.39-1.33a.52.52,0,0,1-.48-.56h0a.53.53,0,0,1,.56-.49h0a.54.54,0,0,1,.49.57h0a.53.53,0,0,1-.53.48h0Zm-33.4-.61A.52.52,0,0,1,54.9,44h0a.53.53,0,0,1,.53.53h0a.52.52,0,0,1-.53.52h0A.52.52,0,0,1,54.38,44.54Z"
            transform="translate(-10.49 -6.21)" />
        <path class="cls-2"
            d="M71.32,49.23a.52.52,0,0,1-.52-.52h0a.52.52,0,0,1,.52-.53h0a.54.54,0,0,1,.53.53h0a.52.52,0,0,1-.53.52Zm1.32-.54a.53.53,0,0,1,.49-.56h0a.53.53,0,0,1,.55.5h0a.51.51,0,0,1-.49.55h0A.51.51,0,0,1,72.64,48.69Zm-3.19.49h0a.53.53,0,0,1-.49-.56h0a.52.52,0,0,1,.55-.49h0a.53.53,0,0,1,.5.56h0a.53.53,0,0,1-.53.49h0Zm5-.62a.53.53,0,0,1,.47-.58h0a.53.53,0,0,1,.58.46h0a.53.53,0,0,1-.47.58H75A.53.53,0,0,1,74.47,48.56ZM67.59,49h0a.51.51,0,0,1-.46-.58h0a.52.52,0,0,1,.58-.46h0a.52.52,0,0,1,.46.58h0a.53.53,0,0,1-.52.47h-.06Zm8.71-.68a.52.52,0,0,1,.43-.61h0a.52.52,0,0,1,.6.43h0a.53.53,0,0,1-.42.61h-.09A.53.53,0,0,1,76.3,48.33Zm-10.56.41a.52.52,0,0,1-.43-.61h0a.52.52,0,0,1,.61-.42h0a.52.52,0,0,1,.42.61h0a.52.52,0,0,1-.51.43h-.09ZM78.11,48a.52.52,0,0,1,.39-.63h0a.52.52,0,0,1,.63.39h0a.52.52,0,0,1-.39.63h0l-.12,0h0A.53.53,0,0,1,78.11,48Zm-14.21.37a.53.53,0,0,1-.39-.63h0a.53.53,0,0,1,.64-.39h0a.53.53,0,0,1,.39.63h0a.54.54,0,0,1-.51.41h0Zm16-.81a.52.52,0,0,1,.35-.66h0a.52.52,0,0,1,.65.35h0a.53.53,0,0,1-.35.66h0l-.15,0h0A.52.52,0,0,1,79.9,47.55Zm-17.81.32a.53.53,0,0,1-.34-.66h0a.52.52,0,0,1,.65-.34h0a.52.52,0,0,1,.35.65h0a.52.52,0,0,1-.5.37h0ZM81.65,47a.53.53,0,0,1,.3-.68h0a.52.52,0,0,1,.68.3h0a.53.53,0,0,1-.3.68h0a.63.63,0,0,1-.19,0h0A.52.52,0,0,1,81.65,47Zm-21.33.27a.52.52,0,0,1-.3-.68h0a.52.52,0,0,1,.68-.3h0A.52.52,0,0,1,61,47h0a.53.53,0,0,1-.49.33h0A.58.58,0,0,1,60.32,47.26Zm23-1a.52.52,0,0,1,.25-.7h0a.52.52,0,0,1,.7.25h0a.53.53,0,0,1-.25.7h0a.59.59,0,0,1-.23.05h0A.52.52,0,0,1,83.36,46.3Zm-24.77.21a.53.53,0,0,1-.24-.71h0a.53.53,0,0,1,.7-.24h0a.53.53,0,0,1,.24.71h0a.53.53,0,0,1-.47.29h0A.59.59,0,0,1,58.59,46.51Zm26.41-1a.54.54,0,0,1,.16-.73h0a.53.53,0,0,1,.73.17h0a.53.53,0,0,1-.16.72h0a.6.6,0,0,1-.28.08h0A.54.54,0,0,1,85,45.47Zm-28.07.11h0a.51.51,0,0,1-.16-.72h0a.51.51,0,0,1,.72-.16h0a.51.51,0,0,1,.16.72h0a.51.51,0,0,1-.44.24h0A.46.46,0,0,1,56.93,45.58Zm29.6-1.15a.51.51,0,0,1,0-.74h0a.52.52,0,0,1,.74,0h0a.52.52,0,0,1,0,.74h0a.51.51,0,0,1-.37.15h0A.5.5,0,0,1,86.53,44.43Zm-31.14,0a.54.54,0,0,1,0-.75h0a.54.54,0,0,1,.75,0h0a.53.53,0,0,1,0,.75h0a.51.51,0,0,1-.37.15h0A.53.53,0,0,1,55.39,44.38Zm32.39-1.33a.53.53,0,0,1-.48-.57h0a.52.52,0,0,1,.56-.48h0a.53.53,0,0,1,.49.56h0a.53.53,0,0,1-.53.49h0Zm-33.4-.61a.52.52,0,0,1,.52-.53h0a.53.53,0,0,1,.53.53h0a.53.53,0,0,1-.53.52h0A.52.52,0,0,1,54.38,42.44Z"
            transform="translate(-10.49 -6.21)" />
    </g>
    <path class="cls-2"
        d="M21.59,66.68a.18.18,0,0,1-.1,0,.14.14,0,0,1,0-.19l3.56-3.68a.13.13,0,0,1,.2.18l-3.57,3.69A.15.15,0,0,1,21.59,66.68Z"
        transform="translate(-10.49 -6.21)" />
</svg>