<?xml version="1.0" encoding="utf-8"?>
<!-- Generator: Adobe Illustrator 21.1.0, SVG Export Plug-In . SVG Version: 6.00 Build 0)  -->
<svg version="1.1" id="Layer_1" xmlns="http://www.w3.org/2000/svg" xmlns:xlink="http://www.w3.org/1999/xlink" x="0px" y="0px"
	 viewBox="0 0 234 150" style="enable-background:new 0 0 234 150;" xml:space="preserve">
<style type="text/css">
	.st0{fill:none;stroke:#5188C7;stroke-width:4.5;stroke-miterlimit:10;}
	.st1{fill:#5188C7;}
	.st2{fill:none;stroke:#5188C7;stroke-width:4;stroke-miterlimit:10;}
	.st3{fill:none;stroke:#5188C7;stroke-width:2;stroke-linecap:round;stroke-miterlimit:10;}
</style>
<path class="st0" d="M86,38.4H43.5c-9.9,0-17.9,8.1-17.9,17.9v52c0,9.9,8.1,17.9,17.9,17.9h2.6v20.4c0,0.8,0.9,1.3,1.6,0.8L80,126.2
	h41.8c9.9,0,17.9-8.1,17.9-17.9v-2"/>
<path class="st1" d="M42.2,103c1.1,0,2.1,0.9,2.1,2.1c0,1.1-0.9,2.1-2.1,2.1c-1.1,0-2.1-0.9-2.1-2.1C40.1,103.9,41.1,103,42.2,103"
	/>
<path class="st1" d="M48.2,103.1c1.1,0,1.9,0.9,1.9,1.9s-0.9,1.9-1.9,1.9s-1.9-0.9-1.9-1.9S47.1,103.1,48.2,103.1"/>
<path class="st1" d="M54.1,103.3c1,0,1.8,0.8,1.8,1.8c0,1-0.8,1.8-1.8,1.8c-1,0-1.8-0.8-1.8-1.8C52.3,104.1,53.1,103.3,54.1,103.3"
	/>
<path class="st1" d="M59.1,103.5c0.8,0,1.5,0.7,1.5,1.5c0,0.8-0.7,1.5-1.5,1.5c-0.8,0-1.5-0.7-1.5-1.5
	C57.6,104.2,58.3,103.5,59.1,103.5"/>
<path class="st2" d="M151.6,3.6c-31.3,0-56.9,20.7-56.9,46.2c0,13,6.7,25.2,18.3,34c-2.4,4.9-7.2,9.9-15.6,12.4
	c-1.7,0.4-2.8,2-2.7,3.7c0.1,1.7,1.3,3.1,3,3.4c0.3,0,2.3,0.3,5.8,0.3c7.2,0,20.3-1.2,34.6-8.7c4.2,0.8,8.7,1.3,13.3,1.3
	c31.3,0,56.9-20.7,56.9-46.3S183,3.6,151.6,3.6"/>
<line class="st3" x1="115.1" y1="39.2" x2="178.6" y2="39.2"/>
<line class="st3" x1="115.1" y1="49.8" x2="161.6" y2="49.8"/>
<line class="st3" x1="115.1" y1="60.4" x2="173.3" y2="60.4"/>
</svg>
