<?xml version="1.0" encoding="utf-8"?>
<!-- Generator: Adobe Illustrator 21.1.0, SVG Export Plug-In . SVG Version: 6.00 Build 0)  -->
<svg version="1.1" id="Layer_1" xmlns="http://www.w3.org/2000/svg" xmlns:xlink="http://www.w3.org/1999/xlink" x="0px" y="0px"
	 viewBox="0 0 234 150" style="enable-background:new 0 0 234 150;" xml:space="preserve">
<style type="text/css">
	.st0{fill:none;stroke:#5188C7;stroke-width:4.5;stroke-miterlimit:10;}
	.st1{fill:#5188C7;}
	.st2{fill:none;stroke:#5188C7;stroke-width:5;stroke-miterlimit:10;}
	.st3{fill:none;stroke:#5188C7;stroke-width:2;stroke-linecap:round;stroke-miterlimit:10;}
</style>
<path class="st0" d="M94,38.1H38.9C28.9,38.1,21,46.2,21,56v52c0,9.9,8.1,17.9,17.9,17.9h2.6v20.4c0,0.8,0.9,1.3,1.6,0.8l32.3-21.2
	h54.4c9.9,0,17.9-8.1,17.9-17.9v-2"/>
<path class="st1" d="M38.6,100.8c1.7,0,3,1.4,3,3c0,1.7-1.4,3-3,3c-1.7,0-3-1.4-3-3C35.5,102.1,36.9,100.8,38.6,100.8"/>
<path class="st1" d="M47.3,101c1.6,0,2.8,1.3,2.8,2.8c0,1.6-1.3,2.8-2.8,2.8s-2.8-1.3-2.8-2.8C44.4,102.2,45.7,101,47.3,101"/>
<path class="st1" d="M56,101.2c1.5,0,2.6,1.2,2.6,2.6c0,1.5-1.2,2.6-2.6,2.6s-2.6-1.2-2.6-2.6C53.3,102.3,54.5,101.2,56,101.2"/>
<path class="st1" d="M63.3,101.6c1.2,0,2.2,1,2.2,2.2c0,1.2-1,2.2-2.2,2.2c-1.2,0-2.2-1-2.2-2.2C61,102.6,62,101.6,63.3,101.6"/>
<path class="st2" d="M159.7,3.3c-31.3,0-56.9,20.7-56.9,46.2c0,13,6.7,25.2,18.3,34c-2.4,4.9-7.2,9.9-15.6,12.4
	c-1.7,0.4-2.8,2-2.7,3.7c0.1,1.7,1.3,3.1,3,3.4c0.3,0,2.3,0.3,5.8,0.3c7.2,0,20.3-1.2,34.6-8.7c4.2,0.8,8.7,1.3,13.3,1.3
	c31.3,0,56.9-20.7,56.9-46.3S191,3.3,159.7,3.3"/>
<line class="st3" x1="123.1" y1="38.9" x2="186.6" y2="38.9"/>
<line class="st3" x1="123.1" y1="49.5" x2="169.6" y2="49.5"/>
<line class="st3" x1="123.1" y1="60.1" x2="181.4" y2="60.1"/>
</svg>
