<svg id="Layer_1" data-name="Layer 1" xmlns="http://www.w3.org/2000/svg" viewBox="0 0 90.21 77.26">
    <defs>
        <style>
            .cls-1 {
                fill: none;
                stroke: #5188c7;
                stroke-linecap: round;
                stroke-miterlimit: 10;
                stroke-width: 2px;
            }

            .cls-2 {
                fill:#5188c7;
            }
        </style>
    </defs>
    <title>Digital Media Marketing</title>
    <path class="cls-1"
        d="M5.93,35.2V67.94a.52.52,0,0,0,.52.52H39.67a.54.54,0,0,1,.28.08l13,8.18a.52.52,0,0,0,.8-.44V69.62a.52.52,0,0,1,.52-.52H64.64a.52.52,0,0,0,.52-.53V31.77a.52.52,0,0,0-.52-.53H19.71"
        transform="translate(-4.93 -10.84)" />
    <path class="cls-1"
        d="M34.38,53.44V20.7a.52.52,0,0,1,.53-.52H68.13a.57.57,0,0,0,.28-.08l13-8.18a.53.53,0,0,1,.81.45V19a.52.52,0,0,0,.52.53H93.1a.52.52,0,0,1,.52.52V56.88a.52.52,0,0,1-.52.52H48.16"
        transform="translate(-4.93 -10.84)" />
    <line class="cls-1" x1="4.64" y1="76.26" x2="79.19" y2="76.26" />
    <circle class="cls-2" cx="10.77" cy="20.39" r="1" />
    <circle class="cls-2" cx="7.88" cy="20.39" r="0.73" />
    <circle class="cls-2" cx="5.55" cy="20.39" r="0.45" />
    <circle class="cls-2" cx="38.91" cy="46.56" r="1" />
    <circle class="cls-2" cx="36.02" cy="46.56" r="0.73" />
    <circle class="cls-2" cx="33.7" cy="46.56" r="0.45" />
    <circle class="cls-2" cx="89.2" cy="76.26" r="1" />
    <circle class="cls-2" cx="86.31" cy="76.26" r="0.73" />
    <circle class="cls-2" cx="83.99" cy="76.26" r="0.45" />
    <path class="cls-2"
        d="M56.76,38.43s0,0,0,0H55.52L49.7,41H45a0,0,0,0,0,0,0v.23a0,0,0,0,1,0,0H44a0,0,0,0,0,0,0V45a0,0,0,0,0,0,0h1a0,0,0,0,1,0,0v.22a0,0,0,0,0,0,0h.69a0,0,0,0,1,0,0l1.14,4,0,0h3s0,0,0,0l-.68-2.44H50a.26.26,0,0,0,.19-.1.28.28,0,0,0,0-.22l-.44-1.21,5.7,2.58h1.21a0,0,0,0,0,0,0V38.43ZM44.7,44.63a.11.11,0,0,1-.11.12h-.31a.12.12,0,0,1-.12-.12v-3a.12.12,0,0,1,.12-.12h.31a.11.11,0,0,1,.11.12Zm4.49,1.94-.35-1.27s0,0,0,0h.63L50,46.57Zm7.14.67a.26.26,0,0,1-.51,0V39a.26.26,0,0,1,.51,0Z"
        transform="translate(-4.93 -10.84)" />
</svg>