<svg id="Layer_1" data-name="Layer 1" xmlns="http://www.w3.org/2000/svg" viewBox="0 0 73.69 75.14">
    <defs>
        <style>
            .cls-1 {
                fill: #5188c7;
            }
        </style>
    </defs>
    <title>Flutter Mobile app Development</title>
    <path class="cls-1"
        d="M14.08,25.53a.18.18,0,0,0-.19.15V45.4a.18.18,0,0,0,.19.16H30.54l.59.43L34,48.13l-.47-2.57h9.88a.18.18,0,0,0,.19-.16V25.68a.18.18,0,0,0-.19-.15H14.08m0-2.22H43.45a2.39,2.39,0,0,1,2.4,2.37V45.4a2.38,2.38,0,0,1-2.4,2.37H36.22l1,5.45-7.4-5.45H14.08a2.38,2.38,0,0,1-2.4-2.37V25.68a2.39,2.39,0,0,1,2.4-2.37Z"
        transform="translate(-11.68 -12.33)" />
    <rect class="cls-1" x="21.04" y="61.61" width="36.29" height="2" />
    <path class="cls-1"
        d="M69,18.42V38.76l2,2.1V18.42a6.09,6.09,0,0,0-6.09-6.09H36.81a6.09,6.09,0,0,0-6.09,6.09V21.5h2V18.42a4.09,4.09,0,0,1,4.09-4.09h28.1A4.09,4.09,0,0,1,69,18.42Z"
        transform="translate(-11.68 -12.33)" />
    <path class="cls-1"
        d="M69.33,69.74a2,2,0,0,0-.33-.25V81.38a4.09,4.09,0,0,1-4.09,4.09H36.81a4.09,4.09,0,0,1-4.09-4.09v-29l-2-1.5V81.38a6.09,6.09,0,0,0,6.09,6.09h28.1A6.09,6.09,0,0,0,71,81.38V71.5Z"
        transform="translate(-11.68 -12.33)" />
    <rect class="cls-1" x="36.1" y="4.78" width="6.18" height="0.53" rx="0.26" />
    <circle class="cls-1" cx="35.09" cy="5.04" r="0.26" />
    <path class="cls-1"
        d="M73.54,69.49a1.26,1.26,0,0,1-.9-.39l-3.09-3.25a.61.61,0,0,0-.65-.14l-4.2,1.56A1.24,1.24,0,0,1,63.41,67l-2.53-2.36a1.23,1.23,0,0,1-.35-1.27l1.18-4a1,1,0,0,0-.33-1.08L58.14,55.6a1.25,1.25,0,0,1-.43-1.24L58.49,51a1.23,1.23,0,0,1,.92-.94l4.36-1a.61.61,0,0,0,.45-.49L65,44.09a1.26,1.26,0,0,1,.87-1l3.31-1a1.24,1.24,0,0,1,1.27.34l3.09,3.24a.63.63,0,0,0,.65.15l4.2-1.57a1.23,1.23,0,0,1,1.29.26l2.53,2.35a1.24,1.24,0,0,1,.35,1.27l-1.26,4.3a.71.71,0,0,0,.22.66l3.43,2.83a1.26,1.26,0,0,1,.43,1.25l-.78,3.37a1.23,1.23,0,0,1-.92.93l-4.09,1a1,1,0,0,0-.77.83l-.69,4.15a1.26,1.26,0,0,1-.87,1l-3.3,1A1.26,1.26,0,0,1,73.54,69.49ZM69.11,64a2.3,2.3,0,0,1,1.64.7l2.92,3.07,2.82-.87.65-3.9a2.7,2.7,0,0,1,2-2.17L83,59.9,83.66,57l-3.34-2.76A2.38,2.38,0,0,1,79.66,52l1.19-4.06-2.15-2-4,1.48a2.26,2.26,0,0,1-2.44-.56l-2.92-3.06-2.82.86-.69,4.17a2.27,2.27,0,0,1-1.71,1.83l-4.11,1-.66,2.87,3,2.51a2.69,2.69,0,0,1,.87,2.84L62.2,63.62l2.15,2,4-1.48A2.45,2.45,0,0,1,69.11,64Z"
        transform="translate(-11.68 -12.33)" />
    <path class="cls-1"
        d="M71.39,60.92a5.34,5.34,0,1,1,5.1-6.9h0A5.34,5.34,0,0,1,73,60.69,5.22,5.22,0,0,1,71.39,60.92Zm0-9.9a4.4,4.4,0,0,0-1.34.2,4.57,4.57,0,1,0,5.71,3h0A4.57,4.57,0,0,0,71.39,51Z"
        transform="translate(-11.68 -12.33)" />
    <polygon class="cls-1" points="11.47 24.57 9.48 22.6 15.83 16.61 19.91 16.61 11.47 24.57" />
    <polygon class="cls-1" points="14.39 27.49 12.4 25.52 15.93 22.18 20.01 22.18 14.39 27.49" />
    <polygon class="cls-1" points="14.43 23.59 12.4 25.52 15.86 28.93 19.94 29.01 14.43 23.59" />
    <circle class="cls-1" cx="39.19" cy="68.38" r="3.09" />
</svg>