<?xml version="1.0" encoding="utf-8"?>
<!-- Generator: Adobe Illustrator 24.0.1, SVG Export Plug-In . SVG Version: 6.00 Build 0)  -->
<svg version="1.1" id="Layer_1" xmlns="http://www.w3.org/2000/svg" xmlns:xlink="http://www.w3.org/1999/xlink" x="0px" y="0px"
	 viewBox="0 0 100 100" style="enable-background:new 0 0 100 100;" xml:space="preserve">
<style type="text/css">
	.st0{fill:#F37321;}
	.st1{fill:#F37321;stroke:#F37321;stroke-width:0.5;stroke-miterlimit:10;}
	.st2{fill:#F37321;stroke:#F37321;stroke-width:0.467;stroke-miterlimit:10;}
</style>
<path class="st0" d="M14.3,25.7c-0.1,0-0.2,0.1-0.2,0.2v19.7c0,0.1,0.1,0.2,0.2,0.2H30h0.7l0.6,0.4l2.9,2.1l-0.5-2.6h2.7h7.2
	c0.1,0,0.2-0.1,0.2-0.2V25.9c0-0.1-0.1-0.2-0.2-0.2H14.3 M14.3,23.5h29.4c1.3,0,2.4,1.1,2.4,2.4v19.7c0,1.3-1.1,2.4-2.4,2.4h-7.2
	l1,5.4L30,48H14.3c-1.3,0-2.4-1.1-2.4-2.4V25.9C11.9,24.6,12.9,23.5,14.3,23.5L14.3,23.5z"/>
<rect x="32.9" y="74.1" class="st0" width="36.3" height="2"/>
<path class="st0" d="M53.4,81.6h-4.7c-0.5,0-0.8-0.4-0.8-0.8l0,0c0-0.5,0.4-0.8,0.8-0.8h4.7c0.5,0,0.8,0.4,0.8,0.8l0,0
	C54.2,81.3,53.9,81.6,53.4,81.6z"/>
<g>
	<path class="st0" d="M69.2,18.6v17.2l2,2.1V18.6c0-3.4-2.7-6.1-6.1-6.1H37c-3.4,0-6.1,2.7-6.1,6.1v3.1h2v-3.1
		c0-2.3,1.8-4.1,4.1-4.1h28.1C67.4,14.5,69.2,16.4,69.2,18.6z"/>
	<path class="st0" d="M69.5,71.1c-0.1-0.1-0.2-0.2-0.3-0.3v10.7c0,2.3-1.8,4.1-4.1,4.1H37c-2.3,0-4.1-1.8-4.1-4.1v-29l-2-1.5v30.5
		c0,3.4,2.7,6.1,6.1,6.1h28.1c3.4,0,6.1-2.7,6.1-6.1v-8.7L69.5,71.1z"/>
</g>
<g>
	<path class="st1" d="M33.2,29.8v1.1l5.2,4.2l-5.2,4.2v1.1l5.9-4.8v-1L33.2,29.8z"/>
</g>
<g>
	<path class="st1" d="M18.1,34.7v1l5.9,4.8v-1.1l-5.2-4.2l5.2-4.2v-1.1L18.1,34.7z"/>
</g>
<g>
	<path class="st2" d="M31.5,29.6l-5,11.2l-0.7,0l5-11.2L31.5,29.6z"/>
</g>
<path class="st0" d="M53.9,17.8h-5.7c-0.1,0-0.3-0.1-0.3-0.3l0,0c0-0.1,0.1-0.3,0.3-0.3h5.7c0.1,0,0.3,0.1,0.3,0.3l0,0
	C54.1,17.7,54,17.8,53.9,17.8z"/>
<circle class="st0" cx="46.9" cy="17.6" r="0.3"/>
<path class="st0" d="M74.1,72.4c-0.4,0-0.8-0.2-1.1-0.5l-3.7-3.9c-0.2-0.2-0.5-0.3-0.8-0.2l-5,1.9C63,70,62.4,69.9,62,69.5l-3-2.8
	c-0.4-0.4-0.6-1-0.4-1.5l1.4-4.8c0.1-0.5,0-1-0.4-1.3l-3.9-3.2c-0.4-0.4-0.6-0.9-0.5-1.5l0.9-4c0.1-0.6,0.6-1,1.1-1.1l5.2-1.3
	c0.3-0.1,0.5-0.3,0.5-0.6l0.9-5.3c0.1-0.6,0.5-1,1-1.2l4-1.2c0.6-0.2,1.1,0,1.5,0.4l3.7,3.9c0.2,0.2,0.5,0.3,0.8,0.2l5-1.9
	c0.5-0.2,1.1-0.1,1.6,0.3l3,2.8c0.4,0.4,0.6,1,0.4,1.5L83.4,52c-0.1,0.2,0,0.6,0.3,0.8l4.1,3.4c0.4,0.4,0.6,0.9,0.5,1.5l-0.9,4
	c-0.1,0.6-0.6,1-1.1,1.1L81.3,64c-0.5,0.1-0.8,0.5-0.9,1l-0.8,5c-0.1,0.6-0.5,1-1,1.2l-4,1.2C74.4,72.4,74.3,72.4,74.1,72.4z
	 M68.8,65.9c0.7,0,1.4,0.3,2,0.8l3.5,3.7l3.4-1l0.8-4.7c0.2-1.3,1.2-2.3,2.4-2.6l4.6-1.1l0.8-3.4l-4-3.3c-0.8-0.7-1.1-1.8-0.8-2.8
	l1.4-4.9l-2.6-2.4l-4.8,1.8c-1,0.4-2.2,0.1-2.9-0.7l-3.5-3.7l-3.4,1l-0.8,5c-0.2,1.1-1,1.9-2,2.2L57.9,51l-0.8,3.4l3.7,3
	c1,0.8,1.4,2.2,1,3.4l-1.3,4.6l2.6,2.4l4.8-1.8C68.2,65.9,68.5,65.9,68.8,65.9z"/>
<path class="st0" d="M71.6,62.8c-3,0-5.7-1.9-6.7-4.9c-1.1-3.7,0.9-7.6,4.6-8.7c3.7-1.1,7.6,0.9,8.7,4.6l0,0
	c1.1,3.7-0.9,7.6-4.6,8.7C72.9,62.7,72.2,62.8,71.6,62.8z M71.6,49.8c-0.6,0-1.2,0.1-1.7,0.3c-3.1,1-4.9,4.3-4,7.5
	c1,3.1,4.3,4.9,7.5,4c3.1-1,4.9-4.3,4-7.5l0,0C76.5,51.5,74.1,49.8,71.6,49.8z"/>
</svg>
