<svg id="Layer_1" data-name="Layer 1" xmlns="http://www.w3.org/2000/svg" viewBox="0 0 76.47 75.14">
    <defs>
        <style>
            .cls-1,
            .cls-2,
            .cls-3 {
                fill: #5188c7;
            }

            .cls-2,
            .cls-3 {
                stroke: #5188c7;
                stroke-miterlimit: 10;
            }

            .cls-2 {
                stroke-width: 0.5px;
            }

            .cls-3 {
                stroke-width: 0.47px;
            }
        </style>
    </defs>
    <title>Mobile App Development</title>
    <path class="cls-1"
        d="M13.93,25.58a.18.18,0,0,0-.2.15V45.45a.19.19,0,0,0,.2.16H30.38L31,46l2.91,2.14-.47-2.57h9.88a.18.18,0,0,0,.19-.16V25.73a.17.17,0,0,0-.19-.15H13.93m0-2.22H43.29a2.39,2.39,0,0,1,2.41,2.37V45.45a2.39,2.39,0,0,1-2.41,2.37H36.07l1,5.44-7.4-5.44H13.93a2.39,2.39,0,0,1-2.41-2.37V25.73a2.39,2.39,0,0,1,2.41-2.37Z"
        transform="translate(-11.52 -12.37)" />
    <rect class="cls-1" x="21.04" y="61.61" width="36.29" height="2" />
    <rect class="cls-1" x="35.99" y="67.43" width="6.39" height="1.68" rx="0.84" />
    <path class="cls-1"
        d="M68.85,18.46V35.68l2,2.09V18.46a6.1,6.1,0,0,0-6.09-6.09H36.65a6.1,6.1,0,0,0-6.09,6.09v3.09h2V18.46a4.09,4.09,0,0,1,4.09-4.09H64.76A4.09,4.09,0,0,1,68.85,18.46Z"
        transform="translate(-11.52 -12.37)" />
    <path class="cls-1"
        d="M69.18,71a2,2,0,0,0-.33-.26v10.7a4.09,4.09,0,0,1-4.09,4.09H36.65a4.09,4.09,0,0,1-4.09-4.09v-29l-2-1.5V81.43a6.09,6.09,0,0,0,6.09,6.09H64.76a6.09,6.09,0,0,0,6.09-6.09V72.74Z"
        transform="translate(-11.52 -12.37)" />
    <path class="cls-2" d="M32.89,29.67V30.8L38.13,35,32.89,39.2v1.12l5.94-4.84v-1Z"
        transform="translate(-11.52 -12.37)" />
    <path class="cls-2" d="M17.74,34.51v1l5.94,4.84V39.2L18.45,35l5.23-4.21V29.67Z"
        transform="translate(-11.52 -12.37)" />
    <path class="cls-3" d="M31.14,29.47l-5,11.23h-.7l5-11.22Z" transform="translate(-11.52 -12.37)" />
    <rect class="cls-1" x="36.1" y="4.78" width="6.18" height="0.53" rx="0.26" />
    <circle class="cls-1" cx="35.09" cy="5.04" r="0.26" />
    <path class="cls-1"
        d="M73.79,72.29a1.47,1.47,0,0,1-1.08-.47L69,67.93a.75.75,0,0,0-.79-.18l-5,1.88a1.46,1.46,0,0,1-1.55-.31l-3-2.82A1.48,1.48,0,0,1,58.17,65l1.42-4.84a1.24,1.24,0,0,0-.4-1.3l-3.9-3.21a1.49,1.49,0,0,1-.5-1.5l.92-4A1.52,1.52,0,0,1,56.83,49l5.23-1.26a.73.73,0,0,0,.54-.59l.89-5.31a1.51,1.51,0,0,1,1-1.19l4-1.22a1.48,1.48,0,0,1,1.53.41l3.71,3.89a.75.75,0,0,0,.79.18l5-1.88a1.47,1.47,0,0,1,1.55.3l3,2.83a1.48,1.48,0,0,1,.41,1.53L83.06,51.8a.86.86,0,0,0,.27.79L87.44,56A1.47,1.47,0,0,1,88,57.48L87,61.53a1.46,1.46,0,0,1-1.11,1.12L81,63.84a1.24,1.24,0,0,0-.93,1l-.83,5a1.53,1.53,0,0,1-1,1.19l-4,1.21A1.41,1.41,0,0,1,73.79,72.29ZM68.47,65.7a2.72,2.72,0,0,1,2,.85L74,70.22l3.38-1,.78-4.68a3.22,3.22,0,0,1,2.42-2.61l4.61-1.12.8-3.44-4-3.32a2.86,2.86,0,0,1-.8-2.77l1.44-4.89L80,44l-4.75,1.77a2.71,2.71,0,0,1-2.93-.67l-3.51-3.67-3.38,1-.83,5a2.75,2.75,0,0,1-2,2.2l-4.93,1.2-.8,3.44,3.66,3a3.23,3.23,0,0,1,1,3.4l-1.34,4.55,2.59,2.41,4.75-1.77A2.72,2.72,0,0,1,68.47,65.7Z"
        transform="translate(-11.52 -12.37)" />
    <path class="cls-1"
        d="M71.24,62.6a7,7,0,1,1,6.65-9h0a7,7,0,0,1-6.65,9Zm0-12.93a5.89,5.89,0,0,0-1.75.26,6,6,0,1,0,7.46,4h0A6,6,0,0,0,71.23,49.67Z"
        transform="translate(-11.52 -12.37)" />
</svg>