<svg id="Layer_1" data-name="Layer 1" xmlns="http://www.w3.org/2000/svg" viewBox="0 0 93.2 59.76">
    <defs>
        <style>
            .cls-1 {
                fill: #5188c7;
            }
        </style>
    </defs>
    <title>UI-UX Development</title>
    <path class="cls-1"
        d="M89.85,65.9H9.58a1,1,0,0,1-1-1v-45a3.7,3.7,0,0,1,3.7-3.7H87.16a3.7,3.7,0,0,1,3.7,3.7v45A1,1,0,0,1,89.85,65.9Zm-79.26-2H88.84v-44a1.68,1.68,0,0,0-1.68-1.67H12.27a1.68,1.68,0,0,0-1.68,1.67Z"
        transform="translate(-3.11 -16.19)" />
    <path class="cls-1"
        d="M79.44,40.09H51.64A1.67,1.67,0,0,1,50,38.42V25.35a1.67,1.67,0,0,1,1.67-1.67h27.8a1.66,1.66,0,0,1,1.66,1.67V38.42A1.66,1.66,0,0,1,79.44,40.09ZM52,38.06H79.08V25.71H52ZM79.44,25.71h0Z"
        transform="translate(-3.11 -16.19)" />
    <path class="cls-1" d="M95.3,72.94a1,1,0,0,1-1-1v-6H4.13a1,1,0,1,1,0-2H95.3a1,1,0,0,1,1,1v7A1,1,0,0,1,95.3,72.94Z"
        transform="translate(-3.11 -16.19)" />
    <path class="cls-1" d="M92.3,76a1,1,0,1,1,0-2,2,2,0,0,0,2-2,1,1,0,1,1,2,0A4,4,0,0,1,92.3,76Z"
        transform="translate(-3.11 -16.19)" />
    <path class="cls-1" d="M92.3,76H6.54a1,1,0,1,1,0-2H92.3a1,1,0,0,1,0,2Z" transform="translate(-3.11 -16.19)" />
    <path class="cls-1" d="M6.54,76a3.43,3.43,0,0,1-3.43-3.42,1,1,0,1,1,2,0,1.4,1.4,0,0,0,1.4,1.39,1,1,0,0,1,0,2Z"
        transform="translate(-3.11 -16.19)" />
    <path class="cls-1" d="M4.13,73.54a1,1,0,0,1-1-1V64.91a1,1,0,0,1,2,0v7.62A1,1,0,0,1,4.13,73.54Z"
        transform="translate(-3.11 -16.19)" />
    <path class="cls-1" d="M38.1,70.93H8.55a1,1,0,0,1,0-2H38.1a1,1,0,1,1,0,2Z" transform="translate(-3.11 -16.19)" />
    <path class="cls-1"
        d="M80.56,71.57a1.65,1.65,0,1,1,1.65-1.65A1.65,1.65,0,0,1,80.56,71.57Zm0-2a.37.37,0,0,0-.38.37.38.38,0,1,0,.76,0A.37.37,0,0,0,80.56,69.55Z"
        transform="translate(-3.11 -16.19)" />
    <path class="cls-1"
        d="M85.34,71.57A1.65,1.65,0,1,1,87,69.92,1.65,1.65,0,0,1,85.34,71.57Zm0-2a.37.37,0,0,0-.38.37.38.38,0,0,0,.38.38.39.39,0,0,0,.38-.38A.37.37,0,0,0,85.34,69.55Z"
        transform="translate(-3.11 -16.19)" />
    <path class="cls-1"
        d="M89.72,71.57a1.65,1.65,0,1,1,1.65-1.65A1.65,1.65,0,0,1,89.72,71.57Zm0-2a.37.37,0,0,0-.38.37.38.38,0,1,0,.75,0A.36.36,0,0,0,89.72,69.55Z"
        transform="translate(-3.11 -16.19)" />
    <path class="cls-1" d="M80.09,45.66H50.5a1,1,0,0,1,0-2H80.09a1,1,0,0,1,0,2Z" transform="translate(-3.11 -16.19)" />
    <path class="cls-1" d="M80.42,50.68H39.61a1,1,0,0,1,0-2H80.42a1,1,0,1,1,0,2Z" transform="translate(-3.11 -16.19)" />
    <path class="cls-1" d="M35.44,50.68H17.64a1,1,0,0,1,0-2h17.8a1,1,0,0,1,0,2Z" transform="translate(-3.11 -16.19)" />
    <path class="cls-1" d="M42.67,55.7h-25a1,1,0,0,1,0-2h25a1,1,0,1,1,0,2Z" transform="translate(-3.11 -16.19)" />
    <path class="cls-1" d="M80.42,55.7H46.74a1,1,0,1,1,0-2H80.42a1,1,0,1,1,0,2Z" transform="translate(-3.11 -16.19)" />
    <path class="cls-1" d="M80.42,60.71H17.64a1,1,0,0,1,0-2H80.42a1,1,0,1,1,0,2Z" transform="translate(-3.11 -16.19)" />
    <path class="cls-1"
        d="M24.36,41.3a1,1,0,0,1-.73-.3l-6.25-6.41a1,1,0,0,1,0-1.42l6.12-6.34A1,1,0,1,1,25,28.24l-5.44,5.63,5.56,5.71a1,1,0,0,1,0,1.43A1,1,0,0,1,24.36,41.3Z"
        transform="translate(-3.11 -16.19)" />
    <path class="cls-1"
        d="M36.57,41.3a1,1,0,0,1-.71-.29,1,1,0,0,1,0-1.43l5.56-5.71L36,28.24a1,1,0,1,1,1.46-1.41l6.12,6.34a1,1,0,0,1,0,1.42L37.3,41A1,1,0,0,1,36.57,41.3Z"
        transform="translate(-3.11 -16.19)" />
    <path class="cls-1"
        d="M27.36,44.14a.91.91,0,0,1-.35-.07,1,1,0,0,1-.6-1.3L33.2,24.34a1,1,0,1,1,1.91.71l-6.8,18.42A1,1,0,0,1,27.36,44.14Z"
        transform="translate(-3.11 -16.19)" />
</svg>